<?xml version="1.0" encoding="UTF-8"?>
<svg version="1.1" xmlns="http://www.w3.org/2000/svg" width="274" height="274">
<path d="M0 0 C1.04690506 0.00031723 1.04690506 0.00031723 2.11495972 0.00064087 C13.92627111 0.03620239 25.04817354 1.13270519 36.4375 4.375 C37.43789307 4.64787842 37.43789307 4.64787842 38.45849609 4.92626953 C69.19631044 13.49731719 96.37239582 34.59614567 113.4375 61.375 C114.49904297 63.03789063 114.49904297 63.03789063 115.58203125 64.734375 C132.69557135 93.13696163 138.67066858 129.89524633 131.53515625 162.38671875 C131.17960136 163.71894592 130.81287381 165.04822081 130.4375 166.375 C130.21175293 167.18404785 129.98600586 167.9930957 129.75341797 168.82666016 C119.35894827 204.92918 94.99422945 235.69307427 62.296875 254.30859375 C51.91787308 259.98842039 40.91080337 264.4730872 29.4375 267.375 C27.72433594 267.82359375 27.72433594 267.82359375 25.9765625 268.28125 C5.07738203 272.85956945 -19.01572524 272.22422219 -39.5625 266.375 C-40.22942871 266.19308105 -40.89635742 266.01116211 -41.58349609 265.82373047 C-72.32131044 257.25268281 -99.49739582 236.15385433 -116.5625 209.375 C-117.27019531 208.26640625 -117.97789063 207.1578125 -118.70703125 206.015625 C-136.51596869 176.45891812 -141.90349555 138.70189018 -133.88671875 105.12890625 C-123.87682402 67.71298151 -99.63036343 36.2552474 -66.07421875 16.84765625 C-56.73630935 11.63556808 -47.10341691 7.66356425 -36.875 4.5625 C-36.2348999 4.36736816 -35.5947998 4.17223633 -34.93530273 3.97119141 C-23.46642344 0.71244777 -11.87136167 -0.03343647 0 0 Z " fill="#7B41A0" transform="translate(138.5625,1.625)"/>
<path d="M0 0 C1.04690506 0.00031723 1.04690506 0.00031723 2.11495972 0.00064087 C13.92627111 0.03620239 25.04817354 1.13270519 36.4375 4.375 C37.43789307 4.64787842 37.43789307 4.64787842 38.45849609 4.92626953 C69.19631044 13.49731719 96.37239582 34.59614567 113.4375 61.375 C114.49904297 63.03789063 114.49904297 63.03789063 115.58203125 64.734375 C132.69557135 93.13696163 138.67066858 129.89524633 131.53515625 162.38671875 C131.17960136 163.71894592 130.81287381 165.04822081 130.4375 166.375 C130.21175293 167.18404785 129.98600586 167.9930957 129.75341797 168.82666016 C123.29597578 191.25492647 112.33358018 208.54797812 97.4375 226.375 C95.09252182 224.38756657 92.76114733 222.38722541 90.4375 220.375 C89.6228125 219.67262207 88.808125 218.97024414 87.96875 218.24658203 C70.28364677 202.71619283 70.28364677 202.71619283 69.21875 195.94140625 C69.59531366 189.15653609 71.5357494 184.75616438 75.4375 179.375 C73.4575 180.365 73.4575 180.365 71.4375 181.375 C71.4375 180.385 71.4375 179.395 71.4375 178.375 C70.7775 178.375 70.1175 178.375 69.4375 178.375 C69.4375 184.975 69.4375 191.575 69.4375 198.375 C63.4375 193.375 63.4375 193.375 62.73828125 190.83984375 C62.74214844 190.00582031 62.74601563 189.17179688 62.75 188.3125 C62.7363123 185.35139457 62.62780791 183.72270093 61.1953125 181.10546875 C59.03595644 178.97970268 57.98527944 178.86075236 55 178.75 C48.74843011 178.47497324 45.8283864 176.01728745 41.453125 171.62109375 C40.99266785 171.16017838 40.53221069 170.699263 40.05780029 170.22438049 C39.09067817 169.25424882 38.12597596 168.28169939 37.16357422 167.30688477 C35.68381763 165.80877195 34.19611398 164.3189157 32.70703125 162.83007812 C25.4375 155.51517532 25.4375 155.51517532 25.4375 154.375 C30.3875 154.375 35.3375 154.375 40.4375 154.375 C40.4375 151.405 40.4375 148.435 40.4375 145.375 C30.2075 145.375 19.9775 145.375 9.4375 145.375 C9.4375 137.125 9.4375 128.875 9.4375 120.375 C18.6775 120.375 27.9175 120.375 37.4375 120.375 C37.4375 117.405 37.4375 114.435 37.4375 111.375 C28.1975 111.375 18.9575 111.375 9.4375 111.375 C9.4375 103.125 9.4375 94.875 9.4375 86.375 C19.3375 86.375 29.2375 86.375 39.4375 86.375 C39.4375 83.735 39.4375 81.095 39.4375 78.375 C26.2375 78.375 13.0375 78.375 -0.5625 78.375 C-0.5625 94.875 -0.5625 111.375 -0.5625 128.375 C-2.8725 126.395 -5.1825 124.415 -7.5625 122.375 C-8.57417236 121.58697998 -9.58584473 120.79895996 -10.62817383 119.98706055 C-18.55785279 113.22353097 -18.55785279 113.22353097 -19.44287109 107.39697266 C-19.77205759 102.97597082 -19.52836242 98.60453382 -19.25 94.1875 C-19.194698 92.64796354 -19.14452986 91.10823371 -19.09960938 89.56835938 C-18.97962885 85.83315375 -18.79060229 82.1053497 -18.5625 78.375 C-21.8625 78.375 -25.1625 78.375 -28.5625 78.375 C-28.5625 85.635 -28.5625 92.895 -28.5625 100.375 C-33.08884704 96.49527396 -37.40863538 92.6719902 -41.58959961 88.46142578 C-42.14657532 87.9045961 -42.70355103 87.34776642 -43.27740479 86.77406311 C-45.09226899 84.95851 -46.90357911 83.13945606 -48.71484375 81.3203125 C-49.98257374 80.05071469 -51.25052673 78.78133952 -52.51869202 77.51217651 C-55.83674776 74.19032426 -59.15178789 70.86547867 -62.46618652 67.53997803 C-65.85648355 64.13940491 -69.24965506 60.74170263 -72.64257812 57.34375 C-79.28535162 50.69028981 -85.92493946 44.03366041 -92.5625 37.375 C-76.84622156 21.56410415 -58.16335886 10.99300586 -36.875 4.5625 C-36.2351416 4.3675293 -35.5952832 4.17255859 -34.93603516 3.97167969 C-23.46754176 0.71139603 -11.87123673 -0.03343612 0 0 Z " fill="#682995" transform="translate(138.5625,1.625)"/>
<path d="M0 0 C12 0 12 0 14.9375 2.61328125 C15.66899713 3.82077329 16.35444576 5.05695837 17 6.3125 C17.82021046 7.70709127 18.64052776 9.1016197 19.4609375 10.49609375 C19.8744043 11.23585449 20.28787109 11.97561523 20.71386719 12.73779297 C22.4283943 15.75351208 24.28886225 18.6639874 26.15893555 21.58496094 C27.66004834 23.92974661 29.14186131 26.28588933 30.62109375 28.64453125 C33.15691536 32.67490994 35.71539843 36.69041913 38.28515625 40.69921875 C38.6501825 41.26868225 39.01520874 41.83814575 39.39129639 42.42486572 C41.20348899 45.25087657 43.01739248 48.07577455 44.83251953 50.89990234 C45.48978027 51.92422363 46.14704102 52.94854492 46.82421875 54.00390625 C47.41291748 54.91986572 48.00161621 55.8358252 48.6081543 56.77954102 C50 59 50 59 51 61 C51.33 40.87 51.66 20.74 52 0 C54.97 0 57.94 0 61 0 C61 25.08 61 50.16 61 76 C57.37 76 53.74 76 50 76 C46.97451035 72.64445694 45.18691831 69.88834967 43 66 C41.65094386 63.82666687 40.27559141 61.67123201 38.89916992 59.51513672 C37.34035583 57.07067252 35.79810891 54.61632393 34.2578125 52.16015625 C30.9672124 46.93127111 27.61853806 41.74144177 24.25 36.5625 C23.49082275 35.39388428 23.49082275 35.39388428 22.71630859 34.20166016 C18.52508025 27.76807731 14.25986905 21.38980357 10 15 C9.67 35.13 9.34 55.26 9 76 C6.03 76 3.06 76 0 76 C0 50.92 0 25.84 0 0 Z " fill="#FCFBFD" transform="translate(58,80)"/>
<path d="M0 0 C12.87 0 25.74 0 39 0 C39 2.64 39 5.28 39 8 C29.1 8 19.2 8 9 8 C9 16.25 9 24.5 9 33 C18.24 33 27.48 33 37 33 C37 35.97 37 38.94 37 42 C27.76 42 18.52 42 9 42 C9 50.25 9 58.5 9 67 C19.23 67 29.46 67 40 67 C40 69.97 40 72.94 40 76 C26.8 76 13.6 76 0 76 C0 50.92 0 25.84 0 0 Z " fill="#FAF8FB" transform="translate(139,80)"/>
<path d="M0 0 C0.33 0.66 0.66 1.32 1 2 C0.24718486 3.44557665 -0.52038637 4.88493214 -1.35083008 6.28735352 C-19.26700078 36.58504321 -22.08285748 73.83012016 -13.50952148 107.52661133 C-4.15628711 140.81582235 18.56949269 169.43542649 48.421875 186.578125 C66.55401858 196.66303624 86.14662145 203.07380687 107 204 C108.15371094 204.05285156 109.30742187 204.10570312 110.49609375 204.16015625 C134.03906754 204.70546179 156.49510976 199.24270708 177.49609375 188.734375 C180.30305134 187.34497793 183.07328589 186.10527161 186 185 C176.02232176 196.24710295 157.99449843 201.09514194 144 205 C143.31599121 205.19352051 142.63198242 205.38704102 141.92724609 205.58642578 C121.19354553 211.11999307 95.48480555 209.8315809 75 204 C73.99960693 203.72712158 73.99960693 203.72712158 72.97900391 203.44873047 C42.24118956 194.87768281 15.06510418 173.77885433 -2 147 C-2.70769531 145.89140625 -3.41539063 144.7828125 -4.14453125 143.640625 C-21.95346869 114.08391812 -27.34099555 76.32689018 -19.32421875 42.75390625 C-15.35634272 27.92240654 -9.66779564 12.1444223 0 0 Z " fill="#FDFDFE" transform="translate(24,64)"/>
<path d="M0 0 C17.49 0 34.98 0 53 0 C53 2.64 53 5.28 53 8 C45.74 8 38.48 8 31 8 C31 30.44 31 52.88 31 76 C28.03 76 25.06 76 22 76 C22 53.56 22 31.12 22 8 C14.74 8 7.48 8 0 8 C0 5.36 0 2.72 0 0 Z " fill="#FCFBFD" transform="translate(186,80)"/>
<path d="M0 0 C2.69990662 1.79993774 4.5418865 3.083773 6 6 C6 7.98 6 9.96 6 12 C1.05 12 -3.9 12 -9 12 C-7.67082039 17.47825081 -7.67082039 17.47825081 -6 19 C-2.1638778 19.14475933 1.32307787 19.17661508 5 18 C4 21 4 21 2 22 C-1.08308569 22.47851428 -3.92260124 22.54119771 -7 22 C-10.30757038 19.36744398 -11.61973151 17.90473773 -12.4375 13.80859375 C-12.72833554 8.43722484 -11.55347965 5.1805643 -8 1 C-5.14675563 -0.42662219 -3.16545451 -0.31033868 0 0 Z " fill="#E3DBE8" transform="translate(143,179)"/>
<path d="M0 0 C2.33944736 0.28730055 4.6739143 0.61936779 7 1 C7.33 1.99 7.66 2.98 8 4 C8.66 4 9.32 4 10 4 C10.33 3.01 10.66 2.02 11 1 C14.1875 0.1875 14.1875 0.1875 18 0 C20.78611746 1.985509 22.70991883 3.53606057 23.39770508 7.00708008 C23.49191786 9.29535864 23.43708518 11.52588272 23.3125 13.8125 C23.28994141 14.60076172 23.26738281 15.38902344 23.24414062 16.20117188 C23.18554161 18.13493929 23.09586827 20.06772167 23 22 C22.01 22 21.02 22 20 22 C19.67 16.06 19.34 10.12 19 4 C14.42662484 2.54076614 14.42662484 2.54076614 12.23046875 3.92578125 C10.31813368 7.14943179 10.42416856 10.5343427 10.3125 14.1875 C10.27833984 14.93708984 10.24417969 15.68667969 10.20898438 16.45898438 C10.12665706 18.30546838 10.06164719 20.15270994 10 22 C9.01 22 8.02 22 7 22 C6.67 15.73 6.34 9.46 6 3 C3.69 3.33 1.38 3.66 -1 4 C-2.585869 7.171738 -2.37866445 10.63513822 -2.5625 14.125 C-2.60568359 14.87910156 -2.64886719 15.63320312 -2.69335938 16.41015625 C-2.7994832 18.27321888 -2.90025001 20.13658524 -3 22 C-3.99 22 -4.98 22 -6 22 C-6 15.07 -6 8.14 -6 1 C-4.35 1 -2.7 1 -1 1 C-0.67 0.67 -0.34 0.34 0 0 Z " fill="#D1BFDA" transform="translate(103,179)"/>
<path d="M0 0 C2.171875 1.4453125 2.171875 1.4453125 4 4 C4.48921322 7.0981003 4.37701318 10.12352177 4.25 13.25 C4.23195313 14.09046875 4.21390625 14.9309375 4.1953125 15.796875 C4.14830798 17.86507395 4.07656724 19.93268441 4 22 C3.34 22 2.68 22 2 22 C1.67 21.34 1.34 20.68 1 20 C0.34 20.66 -0.32 21.32 -1 22 C-2.875 22.265625 -2.875 22.265625 -5 22.25 C-6.051875 22.25773437 -6.051875 22.25773437 -7.125 22.265625 C-9 22 -9 22 -11 20 C-11.5 16.625 -11.5 16.625 -11 13 C-7.67113498 9.83351864 -5.71756405 9.04629445 -1.125 8.75 C-0.09375 8.8325 0.9375 8.915 2 9 C1.67 7.02 1.34 5.04 1 3 C-0.258125 3.144375 -1.51625 3.28875 -2.8125 3.4375 C-3.52019531 3.51871094 -4.22789063 3.59992188 -4.95703125 3.68359375 C-7.19396393 3.97170735 -7.19396393 3.97170735 -10 5 C-10 4.01 -10 3.02 -10 2 C-6.59575912 -0.09491746 -3.96585158 -0.49573145 0 0 Z " fill="#E4DEE9" transform="translate(86,179)"/>
<path d="M0 0 C0.99 0 1.98 0 3 0 C4.32 4.29 5.64 8.58 7 13 C8.8272911 10.25906335 9.93698178 7.86174676 11.125 4.8125 C11.47820312 3.91144531 11.83140625 3.01039063 12.1953125 2.08203125 C12.46085938 1.39496094 12.72640625 0.70789063 13 0 C13.66 0 14.32 0 15 0 C16.32 4.29 17.64 8.58 19 13 C20.49251706 10.01496588 21.60987721 7.38765227 22.625 4.25 C22.88539063 3.45078125 23.14578125 2.6515625 23.4140625 1.828125 C23.60742188 1.22484375 23.80078125 0.6215625 24 0 C24.66 0 25.32 0 26 0 C25.3900874 4.98844309 24.36525565 9.60155346 22.9375 14.4375 C22.57527344 15.67371094 22.21304688 16.90992188 21.83984375 18.18359375 C21.56269531 19.11300781 21.28554687 20.04242188 21 21 C20.01 21 19.02 21 18 21 C16.68 16.71 15.36 12.42 14 8 C12.09610151 10.85584773 11.30537823 12.9311762 10.375 16.1875 C10.11460937 17.08855469 9.85421875 17.98960937 9.5859375 18.91796875 C9.39257812 19.60503906 9.19921875 20.29210937 9 21 C8.01 21 7.02 21 6 21 C4.99778688 17.68816543 3.99860074 14.37542541 3 11.0625 C2.71382812 10.11697266 2.42765625 9.17144531 2.1328125 8.19726562 C1.86210937 7.29814453 1.59140625 6.39902344 1.3125 5.47265625 C1.06113281 4.64000244 0.80976563 3.80734863 0.55078125 2.94946289 C0 1 0 1 0 0 Z " fill="#E1D8E6" transform="translate(152,180)"/>
<path d="M0 0 C2.93541736 2.21946191 3.80586845 3.75551459 4.37109375 7.37890625 C4.58557274 11.739979 4.4386427 14.28355026 2.125 18.0625 C-1.14012491 21.03952565 -3.52262342 21.39165365 -7.9609375 21.359375 C-11.38006698 20.7567698 -12.93189052 18.63213933 -15 16 C-16.61429923 12.77140153 -16.59570657 9.49006347 -16 6 C-11.97635371 -1.0113538 -7.4143198 -1.85687228 0 0 Z M-11.3125 2.5625 C-13.56378317 5.81435347 -13.9319763 8.05462518 -14 12 C-12.45204133 16.32393774 -12.45204133 16.32393774 -9 19 C-4.39159462 19.51567572 -4.39159462 19.51567572 -0.33203125 17.7578125 C2.07868186 14.57651954 2.12983713 10.89511378 2 7 C0.66498121 3.94852848 -0.02373434 2.48813283 -3 1 C-6.51919011 0.61747934 -8.34136037 0.55497322 -11.3125 2.5625 Z " fill="#DED3E4" transform="translate(198,180)"/>
<path d="M0 0 C0.66 0 1.32 0 2 0 C2.33 5.94 2.66 11.88 3 18 C5.64 15.36 8.28 12.72 11 10 C11.99 10.33 12.98 10.66 14 11 C11.36 13.64 8.72 16.28 6 19 C7.74676919 22.49353838 8.91405215 24.13945763 11.625 26.75 C12.57246094 27.67039063 12.57246094 27.67039063 13.5390625 28.609375 C14.02117187 29.06828125 14.50328125 29.5271875 15 30 C13.68 30.33 12.36 30.66 11 31 C10.25943359 30.15115234 10.25943359 30.15115234 9.50390625 29.28515625 C8.86324219 28.55167969 8.22257813 27.81820312 7.5625 27.0625 C6.92441406 26.33160156 6.28632813 25.60070312 5.62890625 24.84765625 C4.77458541 23.87860647 3.91348825 22.91348825 3 22 C2.67 24.97 2.34 27.94 2 31 C1.34 31 0.68 31 0 31 C0 20.77 0 10.54 0 0 Z " fill="#EFEDEF" transform="translate(223,170)"/>
<path d="M0 0 C1.52150158 3.04300316 1.23899393 5.654085 1 9 C-2 11 -2 11 -5.625 10.75 C-6.73875 10.5025 -7.8525 10.255 -9 10 C-10.39935013 7.20129973 -10.25265405 5.09501208 -10 2 C-7.65446208 -2.27715738 -4.20919664 -1.01332512 0 0 Z " fill="#FBFAFC" transform="translate(41,146)"/>
<path d="M0 0 C4.62 0 9.24 0 14 0 C14 0.66 14 1.32 14 2 C10.04 2 6.08 2 2 2 C2 5.96 2 9.92 2 14 C5.63 14 9.26 14 13 14 C13 14.66 13 15.32 13 16 C9.37 16 5.74 16 2 16 C2 20.29 2 24.58 2 29 C1.34 29 0.68 29 0 29 C0 19.43 0 9.86 0 0 Z " fill="#EEECEF" transform="translate(41,171)"/>
<path d="M0 0 C-0.3125 3.375 -0.3125 3.375 -1 7 C-4.22373677 9.14915785 -5.26703674 9.38286803 -9 9 C-9.66 8.34 -10.32 7.68 -11 7 C-10.8125 4.5 -10.8125 4.5 -10 2 C-6.3558226 -0.4294516 -4.28758728 -0.16179575 0 0 Z " fill="#7E46A2" transform="translate(88,190)"/>
<path d="M0 0 C1.8125 1.8125 1.8125 1.8125 3 4 C3 4.99 3 5.98 3 7 C-0.96 7 -4.92 7 -9 7 C-8.67 5.35 -8.34 3.7 -8 2 C-4.77856724 -0.14762184 -3.7404533 -0.561068 0 0 Z " fill="#7D45A2" transform="translate(143,181)"/>
<path d="M0 0 C0.33 0.99 0.66 1.98 1 3 C-3.95 3 -8.9 3 -14 3 C-12.48134786 7.29888613 -12.48134786 7.29888613 -10 11 C-6.1638778 11.14475933 -2.67692213 11.17661508 1 10 C0 13 0 13 -2 14 C-5.743243 14.58097485 -9.4640485 15.04980171 -12.703125 12.8359375 C-14.87043513 10.40705546 -15.94529683 8.41027377 -16.375 5.1875 C-16 3 -16 3 -15 2 C-12.46950598 1.92686433 -9.96695163 1.90752473 -7.4375 1.9375 C-6.72658203 1.94201172 -6.01566406 1.94652344 -5.28320312 1.95117188 C-3.52209987 1.96299136 -1.76103964 1.98092737 0 2 C0 1.34 0 0.68 0 0 Z " fill="#ECE8ED" transform="translate(147,187)"/>
<path d="M0 0 C-0.33 0.99 -0.66 1.98 -1 3 C-2.65204456 3.70211894 -4.31923769 4.36971413 -6 5 C-7.52106634 8.04213267 -7.37429338 11.28047572 -7.5625 14.625 C-7.60568359 15.33140625 -7.64886719 16.0378125 -7.69335938 16.765625 C-7.79944751 18.51018537 -7.90022889 20.25506697 -8 22 C-8.66 22 -9.32 22 -10 22 C-10 15.07 -10 8.14 -10 1 C-8.68 1 -7.36 1 -6 1 C-4 0 -4 0 0 0 Z " fill="#F0EFF1" transform="translate(71,179)"/>
<path d="M0 0 C0.66 0 1.32 0 2 0 C2.33 0.66 2.66 1.32 3 2 C3.66 1.34 4.32 0.68 5 0 C7.625 -0.125 7.625 -0.125 10 0 C9.401875 0.226875 8.80375 0.45375 8.1875 0.6875 C5.30422714 2.41746371 4.4779362 3.97844154 3 7 C2.42666389 10.57474155 2.42666389 10.57474155 2.3125 14.3125 C2.24675781 15.56675781 2.18101562 16.82101563 2.11328125 18.11328125 C2.05720703 19.54220703 2.05720703 19.54220703 2 21 C1.34 21 0.68 21 0 21 C0 14.07 0 7.14 0 0 Z " fill="#E3DAE7" transform="translate(208,180)"/>
<path d="M0 0 C0.99 0 1.98 0 3 0 C4.65497356 3.30994713 4.10084335 6.99123 4.0625 10.625 C4.05798828 11.42679688 4.05347656 12.22859375 4.04882812 13.0546875 C4.03703168 15.03649006 4.01909605 17.01825433 4 19 C3.01 19 2.02 19 1 19 C0.67 12.73 0.34 6.46 0 0 Z " fill="#CEBBD9" transform="translate(122,182)"/>
<path d="M0 0 C0.66 0 1.32 0 2 0 C2.49029622 7.23186925 2.49029622 7.23186925 0.125 10.9375 C-2.01260116 13.01223054 -2.98327003 13.94895934 -5.9453125 14.09765625 C-7.96354167 14.06510417 -9.98177083 14.03255208 -12 14 C-12.33 13.34 -12.66 12.68 -13 12 C-12.38511719 11.98582031 -11.77023438 11.97164062 -11.13671875 11.95703125 C-5.96436367 11.7845596 -5.96436367 11.7845596 -2 8.8125 C-0.95240502 5.86613911 -0.36087366 3.10351345 0 0 Z " fill="#E5DEE9" transform="translate(200,187)"/>
<path d="M0 0 C0.66 0 1.32 0 2 0 C3 2 3 2 3 8 C-1.95 8 -6.9 8 -12 8 C-12.33 8.99 -12.66 9.98 -13 11 C-13 9.68 -13 8.36 -13 7 C-8.05 7 -3.1 7 2 7 C0.96593327 5.74050951 0.96593327 5.74050951 -1.28515625 5.90234375 C-2.20167969 5.91394531 -3.11820313 5.92554688 -4.0625 5.9375 C-4.98160156 5.94652344 -5.90070313 5.95554688 -6.84765625 5.96484375 C-7.55792969 5.97644531 -8.26820313 5.98804688 -9 6 C-9 5.67 -9 5.34 -9 5 C-6.03 5 -3.06 5 0 5 C-0.33 3.68 -0.66 2.36 -1 1 C-0.67 0.67 -0.34 0.34 0 0 Z " fill="#BDA2CD" transform="translate(146,183)"/>
<path d="M0 0 C3.375 -0.1875 3.375 -0.1875 7 0 C9.29013653 3.4352048 9.17842973 4.985331 9 9 C7.87105124 8.06725891 6.74699124 7.12859878 5.625 6.1875 C4.99851563 5.66542969 4.37203125 5.14335937 3.7265625 4.60546875 C2 3 2 3 0 0 Z " fill="#6A2C96" transform="translate(190,182)"/>
<path d="M0 0 C0.99 0 1.98 0 3 0 C3.69640673 2.12209776 4.38188357 4.24778527 5.0625 6.375 C5.44535156 7.55835938 5.82820312 8.74171875 6.22265625 9.9609375 C7 13 7 13 6 15 C5.34 15 4.68 15 4 15 C2.68 10.05 1.36 5.1 0 0 Z " fill="#DED4E4" transform="translate(152,180)"/>
<path d="M0 0 C1.4375 2.0625 1.4375 2.0625 2 4 C1.01 4 0.02 4 -1 4 C-1 3.34 -1 2.68 -1 2 C-4.63 2.33 -8.26 2.66 -12 3 C-12 2.01 -12 1.02 -12 0 C-7.74378709 -1.16078534 -4.28750852 -1.05165303 0 0 Z " fill="#DDD2E3" transform="translate(110,180)"/>
<path d="M0 0 C-1 3 -1 3 -3 4 C-4.54023996 4.06950541 -6.08334988 4.08452357 -7.625 4.0625 C-8.85089844 4.04896484 -8.85089844 4.04896484 -10.1015625 4.03515625 C-11.04128906 4.01775391 -11.04128906 4.01775391 -12 4 C-12 3.34 -12 2.68 -12 2 C-10.37548581 1.66430703 -8.75037083 1.3315204 -7.125 1 C-6.22007812 0.814375 -5.31515625 0.62875 -4.3828125 0.4375 C-2 0 -2 0 0 0 Z " fill="#DFD6E5" transform="translate(148,197)"/>
<path d="M0 0 C0.99 0.33 1.98 0.66 3 1 C0.36 3.64 -2.28 6.28 -5 9 C-5.66 8.34 -6.32 7.68 -7 7 C-4.69 4.69 -2.38 2.38 0 0 Z " fill="#DFD6E5" transform="translate(234,180)"/>
<path d="M0 0 C0 0.66 0 1.32 0 2 C-4.95 3.485 -4.95 3.485 -10 5 C-10 4.01 -10 3.02 -10 2 C-6.5980513 -0.09350689 -3.94727588 -0.17942163 0 0 Z " fill="#DCD2E3" transform="translate(86,179)"/>
<path d="M0 0 C3.625 0.1875 3.625 0.1875 7 1 C7.33 1.66 7.66 2.32 8 3 C4.37 3 0.74 3 -3 3 C-2.01 2.01 -1.02 1.02 0 0 Z " fill="#DED4E4" transform="translate(116,179)"/>
<path d="M0 0 C3.7952131 1.49097658 5.61042731 3.75700849 8 7 C6.68 7 5.36 7 4 7 C0 2.77777778 0 2.77777778 0 0 Z " fill="#E1D8E6" transform="translate(230,194)"/>
<path d="M0 0 C2.02054804 1.64169528 4.02043058 3.30911778 6 5 C6 5.33 6 5.66 6 6 C4.02 6 2.04 6 0 6 C0 4.02 0 2.04 0 0 Z " fill="#793E9F" transform="translate(148,141)"/>
<path d="M0 0 C0.66 0 1.32 0 2 0 C2 2.64 2 5.28 2 8 C1.01 8.33 0.02 8.66 -1 9 C-0.67 6.03 -0.34 3.06 0 0 Z " fill="#EBE8ED" transform="translate(200,187)"/>
<path d="M0 0 C-0.33 0.99 -0.66 1.98 -1 3 C-4.5625 4.1875 -4.5625 4.1875 -8 5 C-5.96115496 0.48541456 -5.19128917 0 0 0 Z " fill="#DCD0E3" transform="translate(71,179)"/>
<path d="M0 0 C0.99 0.33 1.98 0.66 3 1 C3.625 3.375 3.625 3.375 4 6 C3.34 6.66 2.68 7.32 2 8 C1.87625 7.030625 1.7525 6.06125 1.625 5.0625 C1.41875 4.051875 1.2125 3.04125 1 2 C0.34 1.67 -0.32 1.34 -1 1 C-0.67 0.67 -0.34 0.34 0 0 Z " fill="#E3DBE8" transform="translate(86,180)"/>
</svg>
