<?xml version="1.0" encoding="UTF-8"?>
<svg version="1.1" xmlns="http://www.w3.org/2000/svg" width="225" height="225">
<path d="M0 0 C74.25 0 148.5 0 225 0 C225 74.25 225 148.5 225 225 C150.75 225 76.5 225 0 225 C0 150.75 0 76.5 0 0 Z " fill="#2AB6F5" transform="translate(0,0)"/>
<path d="M0 0 C16.73313656 -0.07008768 33.4662255 -0.12298695 50.19947338 -0.15543652 C57.96905106 -0.17090403 65.73853751 -0.19199127 73.50805664 -0.22631836 C80.28014048 -0.25622433 87.05215827 -0.27557585 93.82430631 -0.28226548 C97.40997929 -0.28617574 100.99546327 -0.29536278 104.58107567 -0.31719017 C108.58432772 -0.34136217 112.58725139 -0.34196923 116.59057617 -0.34057617 C118.37297951 -0.35675491 118.37297951 -0.35675491 120.19139099 -0.3732605 C121.28369019 -0.36913651 122.37598938 -0.36501251 123.50138855 -0.36076355 C124.92141064 -0.36491162 124.92141064 -0.36491162 126.37012005 -0.36914349 C129.52798776 0.07411108 131.38443119 1.2130342 134 3 C134.82482376 3.54115952 135.64964752 4.08231903 136.49946594 4.63987732 C144.48291959 10.13812326 152.01135477 16.06415554 159.3125 22.4375 C160.19287052 23.20390934 160.19287052 23.20390934 161.09102631 23.9858017 C177.1298158 38.17835983 185.7820048 51.95734569 187.15569878 73.64183998 C188.25248364 97.46353436 186.34806952 121.30754548 184 145 C168.73865843 147.45024866 150.53190263 150.1154789 137.02166033 141.06412905 C127.34656977 133.77729112 119.08469775 124.80213536 110.86645317 115.95514226 C107.0112163 111.85006623 103.03929867 107.86083945 99.07971191 103.85679626 C91.63082899 96.28969592 84.2900046 88.6264443 76.98414469 80.92144817 C68.65055283 72.14349471 60.19712604 63.48491906 51.73395824 54.83212864 C38.60737853 41.40540021 25.54591428 27.91805566 12.58398438 14.33227539 C11.93050018 13.6488419 11.27701599 12.9654084 10.60372925 12.2612648 C8.79888543 10.37251341 6.99756831 8.48047844 5.19763184 6.58705139 C4.39811419 5.75097582 4.39811419 5.75097582 3.58244467 4.89800984 C0 1.11532153 0 1.11532153 0 0 Z " fill="#02589B" transform="translate(41,40)"/>
<path d="M0 0 C1.65458889 2.48188334 3.18394171 4.97784953 4.69755554 7.545578 C16.1878813 26.67945776 32.48896431 51.23608375 55.57811737 57.35521698 C80.11393092 62.77540172 106.69060944 60.60693574 131.59363854 59.5425359 C141.79993168 59.11518455 152.00625218 58.94493514 162.21974123 58.79067266 C183.16075072 58.4688994 204.07173495 57.80833916 225 57 C225 70.2 225 83.4 225 97 C150.75 97 76.5 97 0 97 C0 64.99 0 32.98 0 0 Z " fill="#40C4FF" transform="translate(0,128)"/>
<path d="M0 0 C38.28 0 76.56 0 116 0 C112.79364419 2.13757054 109.4701016 3.73866223 105.9934082 5.36962891 C104.52297249 6.06504136 103.05279512 6.76100029 101.58283997 7.45742798 C100.80403788 7.82611622 100.02523579 8.19480446 99.22283363 8.57466507 C94.20988852 10.95875826 89.21720994 13.38504844 84.22289753 15.80787086 C79.84506899 17.92880043 75.46024779 20.03142273 71.05493164 22.09472656 C66.78288983 24.0966574 62.53684321 26.14631534 58.30367088 28.2291069 C56.69700983 29.00923725 55.08201636 29.77247107 53.45864296 30.51720047 C41.88150879 35.84571598 36.32059186 41.09123826 31.75704098 53.08225441 C30.53407044 56.18029853 29.0305757 59.11851345 27.54296875 62.09765625 C26.42303935 64.41857662 25.30457253 66.74020325 24.1875 69.0625 C23.58472373 70.31510751 22.9819404 71.56771161 22.37915039 72.8203125 C21.46574026 74.71866901 20.55253755 76.61712383 19.63999939 78.51589966 C17.71281794 82.52467078 15.77366041 86.5274361 13.828125 90.52734375 C9.13092443 100.21502896 4.53812785 109.81566514 1 120 C0.67 120 0.34 120 0 120 C0 80.4 0 40.8 0 0 Z " fill="#FDFEFE" transform="translate(0,0)"/>
<path d="M0 0 C33 0 66 0 100 0 C100 30.69 100 61.38 100 93 C92.12586347 86.25074012 92.12586347 86.25074012 89.13024902 83.23031616 C88.44919601 82.54630234 87.76814301 81.86228851 87.06645203 81.157547 C86.34520645 80.42799301 85.62396088 79.69843903 84.88085938 78.94677734 C84.10104202 78.16228714 83.32122467 77.37779694 82.51777649 76.5695343 C80.83511176 74.87641741 79.15354684 73.18220692 77.47297668 71.48701096 C74.81041399 68.80232449 72.14381384 66.12171143 69.47595215 63.44229126 C61.89456955 55.82740416 54.31725316 48.20851526 46.75048828 40.57910156 C42.11320134 35.90351448 37.46797314 31.23590852 32.8183136 26.57262039 C31.05174089 24.79800519 29.287947 23.02061919 27.52702332 21.24039841 C25.06460573 18.75145786 22.59299785 16.27199681 20.11914062 13.79443359 C19.39789505 13.06083115 18.67664948 12.3272287 17.93354797 11.57139587 C12.71222941 6.37061469 7.60152976 1.92139755 0 1 C0 0.67 0 0.34 0 0 Z " fill="#FEFEFE" transform="translate(125,0)"/>
<path d="M0 0 C1.12630183 1.68945274 2.22454268 3.40130458 3.21600533 5.17325497 C6.84065378 11.60814116 11.03962945 16.58908053 16.30029297 21.73852539 C17.11071548 22.54792572 17.921138 23.35732605 18.75611877 24.19125366 C21.4088916 26.8362082 24.07541239 29.46682692 26.7421875 32.09765625 C28.59543914 33.94089756 30.44773005 35.78510527 32.29910278 37.63023376 C36.6578961 41.97152319 41.02636389 46.30293016 45.39886963 50.63040394 C51.83396009 56.99994606 58.25607379 63.38255299 64.675951 69.76742458 C65.38173627 70.46935573 65.38173627 70.46935573 66.10177982 71.1854673 C67.50203231 72.57810774 68.90227847 73.97075455 70.30252457 75.36340141 C73.03173482 78.07485292 75.76507534 80.78208312 78.49923706 83.48854065 C80.1582279 85.13432342 81.81717601 86.78014925 83.47607422 88.42602539 C84.24275925 89.18283096 85.00944427 89.93963654 85.79936218 90.71937561 C86.48906601 91.40467346 87.17876984 92.08997131 87.88937378 92.79603577 C88.49365141 93.39419633 89.09792904 93.99235689 89.72051811 94.60864353 C91 96 91 96 91 97 C60.97 97 30.94 97 0 97 C0 64.99 0 32.98 0 0 Z " fill="#FEFEFE" transform="translate(0,128)"/>
<path d="M0 0 C0.33 0 0.66 0 1 0 C1.00423194 0.63261025 1.00846388 1.26522051 1.01282406 1.91700077 C1.11622329 17.32473978 1.22487471 32.7324315 1.33933926 48.1400919 C1.39456784 55.59118177 1.4480325 63.04227643 1.49731445 70.4934082 C1.54028359 76.98939888 1.58659309 83.48535578 1.63687855 89.9812941 C1.66337729 93.41938344 1.68822716 96.85746653 1.70907402 100.29559517 C1.73243454 104.13794543 1.76325414 107.98021658 1.79467773 111.82250977 C1.80331093 113.52399673 1.80331093 113.52399673 1.81211853 115.25985718 C1.86183331 120.60764875 2.06283198 125.73114142 3 131 C0.18977245 129.71494589 -1.90092856 128.36163904 -4.11279297 126.20947266 C-4.69374725 125.64773346 -5.27470154 125.08599426 -5.8732605 124.50723267 C-6.49000641 123.89898651 -7.10675232 123.29074036 -7.7421875 122.6640625 C-8.71117477 121.71217545 -8.71117477 121.71217545 -9.69973755 120.74105835 C-11.06581849 119.39385486 -12.4290243 118.04373062 -13.78955078 116.69091797 C-15.84697308 114.65276444 -17.92472679 112.63701317 -20.00390625 110.62109375 C-28.26481073 102.49244475 -35.61781015 94.91617826 -37.6875 83.0625 C-36.51510415 70.43412186 -27.90438443 57.30172939 -22.375 46.125 C-21.02750015 43.38573925 -19.68198019 40.64551188 -18.33656311 37.90522766 C-17.45302835 36.10599814 -16.56886983 34.30707478 -15.68406677 32.50846863 C-10.97850082 22.93927958 -6.37593555 13.32237113 -1.8059082 3.68774414 C-1.2161215 2.45260465 -0.61211403 1.22422806 0 0 Z " fill="#03589B" transform="translate(37,41)"/>
<path d="M0 0 C10.27704589 5.21845552 18.97785892 16.67096508 27.04199219 24.78979492 C28.34514165 26.09797272 29.64852549 27.40591709 30.95214844 28.71362305 C34.10980011 31.88216706 37.26427969 35.05383669 40.41699219 38.22729492 C38.41699219 39.22729492 38.41699219 39.22729492 35.54161072 38.3097229 C30.25233486 36.69182351 24.91021209 36.919072 19.4230957 36.90844727 C18.23213791 36.89840164 17.04118011 36.88835602 15.81413269 36.87800598 C12.56670858 36.85250498 9.31937908 36.83559466 6.07188535 36.82257795 C2.67124095 36.80689136 -0.72931623 36.78011893 -4.12989807 36.75454712 C-10.56117165 36.7078568 -16.99246182 36.67106572 -23.42381769 36.63787425 C-30.74916676 36.59958375 -38.07442801 36.55019186 -45.39970291 36.49989009 C-60.46073954 36.39671533 -75.52182952 36.30740818 -90.58300781 36.22729492 C-87.21727822 33.62896254 -83.73484311 31.66443861 -79.93432617 29.78149414 C-79.27531815 29.45104095 -78.61631012 29.12058777 -77.93733215 28.78012085 C-75.76777098 27.6934943 -73.59539245 26.61263756 -71.42285156 25.53198242 C-69.91103269 24.77666932 -68.39936181 24.02105993 -66.88783264 23.26516724 C-63.72422326 21.68414358 -60.55929051 20.10581208 -57.39331055 18.52954102 C-53.33362001 16.50820204 -49.27659173 14.48158835 -45.2204504 12.45313835 C-42.10119805 10.89364806 -38.98090803 9.33624398 -35.86026192 7.77954483 C-34.36368445 7.0328477 -32.86734912 6.28566506 -31.37125969 5.53799057 C-29.2826028 4.49474507 -27.19265045 3.45414349 -25.10229492 2.41430664 C-24.48351471 2.10468994 -23.8647345 1.79507324 -23.22720337 1.47607422 C-15.50704001 -2.35515028 -8.17886517 -3.18387548 0 0 Z " fill="#40C4FE" transform="translate(131.5830078125,1.772705078125)"/>
<path d="M0 0 C13.2 0 26.4 0 40 0 C40 13.2 40 26.4 40 40 C26.8 40 13.6 40 0 40 C0 26.8 0 13.6 0 0 Z " fill="#FFFFFF" transform="translate(185,185)"/>
<path d="M0 0 C1.04032379 -0.00563965 2.08064758 -0.0112793 3.15249634 -0.01708984 C4.29851318 -0.01304138 5.44453003 -0.00899292 6.62527466 -0.00482178 C7.82858429 -0.00832642 9.03189392 -0.01183105 10.27166748 -0.01544189 C13.57758504 -0.02275157 16.88325326 -0.02101598 20.18915701 -0.01468372 C23.6466363 -0.00962802 27.10410477 -0.01431419 30.56158447 -0.01745605 C36.37059445 -0.02109794 42.17955364 -0.01629183 47.98855591 -0.0067749 C54.7038957 0.00409987 61.41911397 0.00059212 68.13445079 -0.01042771 C73.89757384 -0.01950651 79.6606603 -0.02078266 85.42378819 -0.01555037 C88.86681365 -0.01243261 92.30978202 -0.0120158 95.7528038 -0.01862335 C99.59315453 -0.02547802 103.43336946 -0.01597429 107.27371216 -0.00482178 C108.41568054 -0.00887024 109.55764893 -0.0129187 110.73422241 -0.01708984 C112.30316757 -0.00863037 112.30316757 -0.00863037 113.90380859 0 C115.26600934 0.00113108 115.26600934 0.00113108 116.65572929 0.002285 C119.07888794 0.25396729 119.07888794 0.25396729 123.07888794 2.25396729 C60.21388794 2.74896729 60.21388794 2.74896729 -3.92111206 3.25396729 C-4.25111206 44.17396729 -4.58111206 85.09396729 -4.92111206 127.25396729 C-5.25111206 127.25396729 -5.58111206 127.25396729 -5.92111206 127.25396729 C-6.09826721 110.99064025 -6.26394836 94.72724342 -6.41588783 78.4636631 C-6.48670137 70.91257782 -6.56130053 63.36156505 -6.64474487 55.81060791 C-6.71744672 49.23088647 -6.78311387 42.65113933 -6.84025609 36.07126367 C-6.87077355 32.58573503 -6.90486582 29.10032247 -6.94737625 25.61491776 C-6.99464542 21.72855821 -7.02621194 17.84215942 -7.05636597 13.95562744 C-7.07290726 12.79397568 -7.08944855 11.63232391 -7.10649109 10.43547058 C-7.11215591 9.380952 -7.11782074 8.32643341 -7.12365723 7.23995972 C-7.13287516 6.32001032 -7.14209309 5.40006092 -7.15159035 4.45223427 C-6.67140398 -0.12771055 -3.90464668 0.00324484 0 0 Z " fill="#368CC4" transform="translate(43.921112060546875,37.74603271484375)"/>
<path d="M0 0 C0.33 0 0.66 0 1 0 C1.00331015 0.64622787 1.00662029 1.29245573 1.01003075 1.95826626 C1.09138011 17.70889813 1.1835113 33.45942491 1.28752708 49.20992184 C1.33757121 56.82685797 1.38401481 64.44378378 1.421875 72.06079102 C1.45489719 78.70259104 1.4947843 85.344309 1.54279006 91.98601824 C1.56795379 95.50019069 1.58976446 99.0143094 1.60334396 102.52854729 C1.61866136 106.45915278 1.64931054 110.38956037 1.68115234 114.32006836 C1.68331253 115.47525467 1.68547272 116.63044098 1.68769836 117.82063293 C1.75342997 124.18548081 2.37187476 129.84098195 4 136 C1.50632133 133.90279348 0.13506907 132.70079203 -0.49219131 129.44631577 C-0.48850414 128.47658955 -0.48481697 127.50686333 -0.48101807 126.50775146 C-0.48651672 125.39158447 -0.49201538 124.27541748 -0.49768066 123.12542725 C-0.48329956 121.90551086 -0.46891846 120.68559448 -0.45410156 119.42871094 C-0.45468567 118.14065552 -0.45526978 116.8526001 -0.45587158 115.5255127 C-0.45701913 111.99671301 -0.43350403 108.46845732 -0.40557575 104.93978405 C-0.38056847 101.25092007 -0.37822064 97.56204358 -0.37347412 93.87310791 C-0.36104231 86.88909211 -0.32821811 79.9053268 -0.28807616 72.92142129 C-0.24336469 64.96988282 -0.22137302 57.01833239 -0.20129442 49.0666995 C-0.1594855 32.71098637 -0.08912968 16.35552515 0 0 Z " fill="#55C4F7" transform="translate(39,40)"/>
</svg>
