<?xml version="1.0" encoding="UTF-8"?>
<svg version="1.1" xmlns="http://www.w3.org/2000/svg" width="200" height="252">
<path d="M0 0 C66 0 132 0 200 0 C200 83.16 200 166.32 200 252 C134 252 68 252 0 252 C0 168.84 0 85.68 0 0 Z " fill="#FEFEFE" transform="translate(0,0)"/>
<path d="M0 0 C3.73892951 1.50224846 5.54093605 3.60165298 8 6.75 C11.58025471 11.24887269 15.23958768 15.65070079 19 20 C24.10077359 25.9202395 29.07647852 31.93126381 34 38 C35.43710706 39.7503227 36.87461537 41.50031602 38.3125 43.25 C39.05113281 44.15621094 39.78976563 45.06242187 40.55078125 45.99609375 C41.83679889 47.57336259 43.12375604 49.14989509 44.41943359 50.71923828 C63.42217685 73.74667463 75.92009066 96.24820615 74.30810547 127.03662109 C72.85365146 141.02565657 66.42513634 153.94751278 58 165 C57.36320313 165.83660156 56.72640625 166.67320312 56.0703125 167.53515625 C44.42093468 181.62558627 27.15205383 190.31598979 9.375 193.6875 C-14.54980473 195.9454635 -34.35251541 190.53606036 -53.578125 176.05859375 C-67.95494787 164.01926132 -77.6488156 145.59713504 -80 127 C-81.0801025 113.89459872 -80.65716045 101.40387505 -76 89 C-75.62617187 88.00097656 -75.25234375 87.00195312 -74.8671875 85.97265625 C-72.9901119 81.64046521 -72.08729309 79.60062553 -67.83203125 77.25 C-63.92841274 75.75814527 -60.13941468 75.62312139 -56 75.75 C-54.99066406 75.75773437 -54.99066406 75.75773437 -53.9609375 75.765625 C-49.55414864 75.83368352 -45.33876859 76.29946965 -41 77 C-40.81207886 76.06486572 -40.81207886 76.06486572 -40.62036133 75.11083984 C-34.99042103 47.39774598 -24.98410394 16.65606929 0 0 Z " fill="#DC2C00" transform="translate(103,29)"/>
<path d="M0 0 C0.33 0 0.66 0 1 0 C1.0309375 0.92941406 1.061875 1.85882813 1.09375 2.81640625 C1.67307512 6.25005318 1.67307512 6.25005318 4.84375 7.65234375 C6.0503125 8.07644531 7.256875 8.50054687 8.5 8.9375 C14.94538427 11.39183298 19.88699606 14.37981572 25 19 C25.60070312 19.49757813 26.20140625 19.99515625 26.8203125 20.5078125 C36.68187726 29.30804294 43.49621866 44.08004435 44.33984375 57.13671875 C44.81567336 70.4674529 42.04250844 82.08216715 36 94 C45.93988244 101.96793802 56.0132824 109.3687682 68 114 C68 114.66 68 115.32 68 116 C51.47320966 121.83171899 51.47320966 121.83171899 45 122 C43.28103516 122.07541016 43.28103516 122.07541016 41.52734375 122.15234375 C19.587199 122.82445286 1.05505452 116.31260247 -15.8125 102.1875 C-31.27921523 87.61033611 -39.81969433 67.54383638 -40.47021484 46.44018555 C-40.57332085 36.0459172 -39.68130664 26.8047873 -36 17 C-35.62617187 16.00097656 -35.25234375 15.00195312 -34.8671875 13.97265625 C-32.9901119 9.64046521 -32.08729309 7.60062553 -27.83203125 5.25 C-23.92841274 3.75814527 -20.13941468 3.62312139 -16 3.75 C-14.99066406 3.75773437 -14.99066406 3.75773437 -13.9609375 3.765625 C-9.55414864 3.83368352 -5.33876859 4.29946965 -1 5 C-0.67 3.35 -0.34 1.7 0 0 Z " fill="#FDC301" transform="translate(63,101)"/>
<path d="M0 0 C0.33 0 0.66 0 1 0 C1.0309375 0.92941406 1.061875 1.85882813 1.09375 2.81640625 C1.67307512 6.25005318 1.67307512 6.25005318 4.84375 7.65234375 C6.0503125 8.07644531 7.256875 8.50054687 8.5 8.9375 C14.94538427 11.39183298 19.88699606 14.37981572 25 19 C25.60070312 19.49757813 26.20140625 19.99515625 26.8203125 20.5078125 C36.68187726 29.30804294 43.49621866 44.08004435 44.33984375 57.13671875 C44.80288234 70.11056328 42.48536943 81.64419503 36 93 C22.42489805 87.26490075 12.46789449 65.70842311 7 53 C1.85372209 39.43284445 -0.34766451 26.25744905 -0.125 11.75 C-0.11597656 10.61175781 -0.10695312 9.47351563 -0.09765625 8.30078125 C-0.0744028 5.53362119 -0.04172868 2.7669324 0 0 Z " fill="#FD9000" transform="translate(63,101)"/>
<path d="M0 0 C3.02021693 1.9910061 6.00051812 4.00037275 8.9375 6.11328125 C16.62688279 11.63512119 24.41513956 15.99716402 33 20 C33 20.66 33 21.32 33 22 C16.47320966 27.83171899 16.47320966 27.83171899 10 28 C8.85402344 28.05027344 7.70804688 28.10054687 6.52734375 28.15234375 C-18.3347751 28.91031639 -18.3347751 28.91031639 -26 22 C-25.21496094 21.56429687 -24.42992188 21.12859375 -23.62109375 20.6796875 C-13.49719104 14.94073897 -6.86256193 9.38648288 0 0 Z " fill="#FD9001" transform="translate(98,195)"/>
<path d="M0 0 C0.66 0.33 1.32 0.66 2 1 C-2.10037573 6.24972347 -6.52964787 10.20962911 -12 14 C-12.66 13.67 -13.32 13.34 -14 13 C-12.23223041 11.20521865 -10.46097441 9.4141293 -8.6875 7.625 C-8.18798828 7.11710937 -7.68847656 6.60921875 -7.17382812 6.0859375 C-4.87457613 3.77145867 -2.72478775 1.81652517 0 0 Z " fill="#DB3614" transform="translate(103,29)"/>
<path d="M0 0 C0.33 0.99 0.66 1.98 1 3 C-0.65 4.32 -2.3 5.64 -4 7 C-4.66 6.67 -5.32 6.34 -6 6 C-4.02 4.02 -2.04 2.04 0 0 Z " fill="#DB4226" transform="translate(95,36)"/>
</svg>
