<?xml version="1.0" encoding="UTF-8"?>
<svg version="1.1" xmlns="http://www.w3.org/2000/svg" width="2048" height="2048">
<path d="M0 0 C-4.80506155 5.78258194 -9.96384519 11.10351478 -15.28601396 16.41021246 C-16.21865967 17.34413625 -17.15130538 18.27806005 -18.11221308 19.24028457 C-20.70212337 21.83360106 -23.2951339 24.42379805 -25.88866014 27.01349759 C-28.71975637 29.84152681 -31.54793677 32.67246956 -34.37649375 35.50303808 C-39.35372769 40.48300719 -44.33282276 45.46110944 -49.31312589 50.43800908 C-56.76872995 57.88853797 -64.22144328 65.3419535 -71.67359027 72.79594003 C-84.37348017 85.49879712 -97.07574039 98.19928161 -109.77928162 110.89848709 C-122.65581558 123.77064559 -135.53125993 136.64389251 -148.4053688 149.51847649 C-149.62428883 150.73743955 -149.62428883 150.73743955 -150.86783351 151.98102813 C-155.01121915 156.12457015 -159.154587 160.26812995 -163.29794857 164.41169604 C-193.30170882 194.41686445 -223.30788953 224.41961134 -253.31534958 254.42107964 C-283.03661669 284.1364263 -312.75685047 313.85280584 -342.47569656 343.57057381 C-343.39830887 344.4931517 -344.32092118 345.4157296 -345.27149144 346.3662644 C-353.6980093 354.79246907 -362.12451441 363.21868649 -370.55100422 371.64491921 C-391.49925116 392.59252672 -412.44765781 413.5399745 -433.39617348 434.48731327 C-433.87307707 434.96419023 -434.34998067 435.44106719 -434.84133589 435.93239497 C-465.7290967 466.81842823 -496.61751739 497.70380145 -527.50649071 528.58862209 C-527.99965351 529.0817186 -528.4928163 529.57481511 -529.00092343 530.08285394 C-544.01315989 545.09306972 -559.0254452 560.10323664 -574.03774006 575.113394 C-590.6507066 591.72399556 -607.26366481 608.33460546 -623.87658691 624.94525146 C-624.3761442 625.44474025 -624.87570148 625.94422903 -625.39039686 626.45885384 C-672.83803321 673.89998965 -720.2843246 721.34247046 -767.73026831 768.78529908 C-769.73994073 770.79483936 -771.74961355 772.80437925 -773.75928638 774.81391912 C-792.25274403 793.30615338 -810.74618591 811.79840342 -829.23960795 830.29067328 C-829.97724382 831.02826319 -829.97724382 831.02826319 -830.72978142 831.7807539 C-832.21869011 833.26956983 -833.70759879 834.75838576 -835.19650748 836.24720169 C-875.4200003 876.46818867 -915.64363079 916.68903796 -955.86735048 956.90979806 C-957.28656206 958.32890529 -958.70577354 959.74801262 -960.12498498 961.16711999 C-1045.35599756 1046.3918805 -1130.58855401 1131.61509694 -1215.82177734 1216.83764648 C-1216.61994631 1217.63571552 -1217.41811528 1218.43378455 -1218.24047118 1219.25603749 C-1258.16022002 1259.17078577 -1298.08005561 1299.08544729 -1338 1339 C-1341.79969875 1337.22831613 -1344.43955134 1334.84335081 -1347.36760426 1331.89245796 C-1347.89929182 1331.36457607 -1348.43097938 1330.83669418 -1348.97877869 1330.29281586 C-1350.76811538 1328.51382681 -1352.55022723 1326.72777105 -1354.33247375 1324.94168091 C-1355.62315771 1323.65544759 -1356.91427239 1322.36964638 -1358.20578164 1321.08424175 C-1361.76050923 1317.54372472 -1365.30892574 1313.99694036 -1368.85633433 1310.44909215 C-1372.68028174 1306.62679018 -1376.5099279 1302.81020513 -1380.33879089 1298.99282837 C-1388.7114509 1290.6430353 -1397.07662358 1282.28576758 -1405.44038415 1273.92706156 C-1410.65879501 1268.71190463 -1415.8788373 1263.49838284 -1421.09923363 1258.28521347 C-1435.5426528 1243.86135956 -1449.98449042 1229.43592754 -1464.41958332 1215.00374031 C-1465.34358911 1214.07992209 -1466.2675949 1213.15610387 -1467.21960087 1212.20429116 C-1469.09288832 1210.33136996 -1470.96617449 1208.45844749 -1472.8394594 1206.58552374 C-1473.76940313 1205.65576282 -1474.69934686 1204.7260019 -1475.6574707 1203.76806641 C-1476.58854282 1202.83717484 -1477.51961493 1201.90628328 -1478.47890135 1200.94718288 C-1493.58205966 1185.84756984 -1508.69692823 1170.75974611 -1523.81698213 1155.67705287 C-1539.32687073 1140.20518323 -1554.82744551 1124.72403512 -1570.31848782 1109.23329532 C-1579.02192406 1100.53044497 -1587.72931328 1091.83163255 -1596.44686317 1083.14291763 C-1603.86619049 1075.74801812 -1611.27695951 1068.34467622 -1618.67652903 1060.93000425 C-1622.4553617 1057.14396833 -1626.23820055 1053.3621679 -1630.03190994 1049.59103394 C-1633.49967262 1046.14371104 -1636.95585709 1042.68521775 -1640.4028944 1039.21717463 C-1641.6567828 1037.95976251 -1642.91497679 1036.70662743 -1644.17769293 1035.45808055 C-1645.88403884 1033.76966545 -1647.57448868 1032.06682491 -1649.26160145 1030.35922432 C-1650.01466055 1029.62501028 -1650.01466055 1029.62501028 -1650.78293297 1028.87596363 C-1652.12824804 1027.49504578 -1652.12824804 1027.49504578 -1654 1025 C-1653.64127713 1021.89419398 -1652.53619189 1020.11883718 -1650.48813027 1017.81539024 C-1649.95156732 1017.20502652 -1649.41500437 1016.59466279 -1648.86218194 1015.9658032 C-1648.26625462 1015.30274111 -1647.67032731 1014.63967901 -1647.05634159 1013.95652413 C-1646.4245671 1013.24240149 -1645.79279262 1012.52827885 -1645.14187345 1011.79251613 C-1643.00058969 1009.3761773 -1640.84890566 1006.9693458 -1638.69699001 1004.5624733 C-1637.14534714 1002.81700746 -1635.59421154 1001.07109057 -1634.04354033 999.32476145 C-1629.74491273 994.48880182 -1625.43602452 989.66207419 -1621.12406367 984.83800474 C-1618.35014511 981.73458835 -1615.57868301 978.62898432 -1612.80743808 975.52318057 C-1599.40216084 960.50190803 -1585.96587196 945.50856743 -1572.51688243 930.52642879 C-1569.74513025 927.43865869 -1566.97409815 924.35024334 -1564.20323937 921.26167155 C-1506.02450074 856.41481167 -1447.30947735 792.09883529 -1387.65052795 728.60955811 C-1386.97498898 727.89053228 -1386.29945 727.17150646 -1385.60344015 726.43069197 C-1356.19438387 695.1287028 -1326.71606861 663.89275521 -1297.14861022 632.74034537 C-1282.62251629 617.4355386 -1268.10925743 602.118612 -1253.60840011 586.78989173 C-1251.42233025 584.47917137 -1249.23588465 582.16880695 -1247.04942365 579.8584567 C-1204.53329289 534.92486605 -1162.92828484 489.29109447 -1121.9708918 442.93415349 C-1056.24486318 368.55057063 -989.12688353 295.71683606 -919.13025275 225.3194063 C-917.02657913 223.20235552 -914.92483076 221.08341166 -912.82367586 218.96386126 C-846.22866976 151.79830976 -776.73234474 85.60938362 0 0 Z " fill="#45D1FD" transform="translate(1846,0)"/>
<path d="M0 0 C7.66555433 0.21971222 15.32607821 0.19090763 22.99400726 0.1583933 C37.1324572 0.10502272 51.2629425 0.23952403 65.39907694 0.48710697 C79.36289502 0.73103627 93.32338339 0.88776752 107.28931666 0.93207234 C108.1626695 0.93489066 109.03602234 0.93770899 109.93584041 0.94061272 C114.37247854 0.9544874 118.80911951 0.96684301 123.24576366 0.97861463 C154.54371404 1.06437617 185.83734668 1.33958519 217.1328702 1.72902172 C247.50601161 2.1065397 277.87796471 2.3964891 308.25298739 2.56984204 C309.19183815 2.57523461 310.13068892 2.58062718 311.0979897 2.58618317 C320.52766536 2.64024979 329.95735011 2.69255708 339.38704273 2.7435764 C358.59062488 2.84751732 377.79413045 2.96318854 396.99760104 3.08597058 C397.88024115 3.09159946 398.76288126 3.09722835 399.67226804 3.10302781 C458.45674899 3.47925885 517.23882797 4.12879247 576.02032137 4.8220393 C571.23042551 10.58520849 566.09135722 15.89031351 560.78618479 21.17922371 C559.86078644 22.10577591 558.93538809 23.0323281 557.98194737 23.98695764 C555.41680193 26.55516118 552.84855984 29.12024815 550.27979553 31.68483133 C547.48445955 34.4767245 544.69203648 37.27152862 541.89924133 40.06596303 C537.00542344 44.96185262 532.10975361 49.85588418 527.2128644 54.74870175 C519.93138814 62.02414049 512.65278353 69.30244705 505.37476429 76.58134385 C493.13162169 88.82580013 480.88615341 101.06792804 468.639359 113.30873173 C456.51310519 125.42906898 444.38788557 137.55043931 432.2640462 149.67319172 C431.51028599 150.42688319 430.75652578 151.18057466 429.97992435 151.95710527 C426.15197898 155.7847123 422.32405209 159.61233781 418.4961323 163.43997044 C391.38135787 190.55264433 364.26426558 217.6629989 337.14580965 244.77199047 C310.80023461 271.1083815 284.45570987 297.44582242 258.11260653 323.78468579 C257.30062927 324.59653152 256.48865201 325.40837725 255.65206938 326.24482437 C247.49787809 334.39769714 239.34370816 342.55059126 231.18955386 350.70350103 C214.57852839 367.31199027 197.96736042 383.92033699 181.35610629 400.52859753 C180.59234405 401.29222247 179.82858182 402.05584742 179.04167527 402.84261251 C128.03694434 453.83814242 77.02889171 504.83034982 26.02032137 555.8220393 C30.80972934 561.58496655 35.94876099 566.88876695 41.25445795 572.1764304 C42.17985631 573.102683 43.10525466 574.0289356 44.05869538 574.98325646 C46.62383849 577.55062968 49.19208235 580.11488117 51.76084721 582.67862997 C54.55619022 585.46962693 57.34861058 588.26354547 60.14140141 591.05709582 C65.03522392 595.95145096 69.93089364 600.84395222 74.82777834 605.7352435 C82.1092714 613.0084427 89.38787996 620.28452341 96.66587845 627.56121928 C108.9091052 639.80211169 121.15458778 652.04074501 133.40128375 664.27816647 C150.11816992 680.98245334 166.8317785 697.69001672 183.54451044 714.3984598 C191.32822514 722.18016823 199.11210039 729.96171605 206.89601756 737.74322193 C207.67521785 738.52218121 208.45441814 739.30114049 209.25723056 740.1037046 C227.80196234 758.64262563 246.3482669 777.179973 264.89483309 795.71705883 C265.7063302 796.5281423 266.51782731 797.33922576 267.35391524 798.17488751 C279.70099042 810.515665 292.04814745 822.8563606 304.39532137 835.1970393 C317.57294055 848.3677274 330.75052783 861.53844739 343.92803622 874.70924633 C344.74001348 875.520809 345.55199074 876.33237167 346.38857337 877.16852715 C364.91494431 895.68545564 383.44086843 914.20283086 401.96538401 932.72161549 C402.74317486 933.49916535 403.52096571 934.2767152 404.32232598 935.07782717 C412.08541271 942.83852905 419.84842101 950.59930936 427.61131204 958.36020699 C444.30999031 975.0545624 461.01005155 991.74753106 477.71288358 1008.43773068 C489.88157271 1020.5972579 502.04856655 1032.75847915 514.21376698 1044.92149673 C521.45076029 1052.15707013 528.68918095 1059.39120907 535.92958544 1066.62336904 C540.75611007 1071.44466503 545.58085025 1076.26774168 550.4041018 1081.09231208 C553.15845465 1083.84731036 555.91362359 1086.60147966 558.6709693 1089.35348282 C561.63040323 1092.30721575 564.58602414 1095.26473361 567.54123164 1098.22269505 C568.41228047 1099.09083102 569.28332931 1099.958967 570.18077356 1100.85341012 C570.95901517 1101.6336428 571.73725677 1102.41387547 572.53908146 1103.21775156 C573.2165667 1103.89485708 573.89405194 1104.57196259 574.59206703 1105.26958646 C576.02032137 1106.8220393 576.02032137 1106.8220393 576.02032137 1107.8220393 C518.78689434 1111.36541121 461.54274735 1114.62389345 404.22788668 1116.50238293 C403.36664399 1116.53068463 402.5054013 1116.55898633 401.61806035 1116.58814566 C382.85728384 1117.20307534 364.09535172 1117.77075494 345.33170136 1118.29043184 C336.11722057 1118.54592048 326.90305093 1118.81174338 317.68902255 1119.08302563 C316.77258241 1119.10983124 315.85614228 1119.13663684 314.91193123 1119.16425474 C287.48749518 1119.97089883 260.13857803 1121.32722572 232.76132468 1123.11268541 C190.4179385 1125.86509722 148.11819293 1127.69998234 105.67937568 1127.83332189 C103.93996543 1127.83882277 102.20055819 1127.84537701 100.46115587 1127.85298255 C10.08120931 1128.23888437 -59.86749767 1116.80976472 -146.78536956 1037.45286578 C-184.2677357 1000.18988357 -218.42672261 959.18715486 -249.62437409 916.56033134 C-250.27311628 915.67837649 -250.92185847 914.79642164 -251.59025951 913.88774088 C-252.77298868 912.27537552 -253.94777453 910.65713227 -255.11200181 909.03135701 C-258.38797509 904.55999729 -261.86535288 900.91060667 -266.1328148 897.36734198 C-269.14450539 894.84740875 -271.88202214 892.05912574 -274.65179777 889.27931469 C-275.26595045 888.66691433 -275.88010313 888.05451397 -276.51286649 887.42355603 C-278.51602262 885.42475424 -280.51555347 883.4223724 -282.51483488 881.41969555 C-283.92138167 880.01382364 -285.32807677 878.6081001 -286.73491239 877.20251721 C-289.67237627 874.26652162 -292.60803944 871.32874061 -295.54242277 868.38966626 C-299.28669922 864.63969307 -303.03544797 860.89422799 -306.7855649 857.15009659 C-309.68801303 854.25127758 -312.58805598 851.35006175 -315.48739767 848.44813603 C-316.86803758 847.06683335 -318.24940875 845.68626115 -319.63155126 844.30646199 C-321.56912842 842.37145017 -323.5034279 840.43321714 -325.43695402 838.49415844 C-325.99766599 837.9354707 -326.55837797 837.37678295 -327.13608121 836.80116528 C-329.86868538 834.05420045 -332.4841948 831.25852085 -334.9946475 828.30664986 C-339.73596671 822.87089796 -344.85298227 817.81345039 -349.95781278 812.72365063 C-351.0653891 811.6156376 -352.17274538 810.50740458 -353.27990204 809.39897221 C-356.30606777 806.37058113 -359.33532461 803.345299 -362.36511623 800.32053607 C-365.63814241 797.05184248 -368.90826357 793.78024482 -372.17874479 790.50900524 C-377.8398965 784.84733007 -383.50287115 779.18748361 -389.16710043 773.52888745 C-397.35654717 765.34757984 -405.54321973 757.16350083 -413.72922546 748.9787504 C-427.0116813 735.69848129 -440.29636714 722.42044525 -453.58246183 709.14381665 C-466.4859795 696.24948291 -479.3884428 683.35409564 -492.28949308 670.45729321 C-493.48302621 669.26415416 -493.48302621 669.26415416 -494.70067112 668.0469113 C-498.69254092 664.05634657 -502.68439004 660.06576115 -506.67622888 656.07516545 C-539.77417299 622.98758213 -572.87573903 589.90362409 -605.97967863 556.8220393 C-601.41286815 551.34501614 -596.56503845 546.26823587 -591.51472902 541.23683518 C-590.67246978 540.39372169 -589.83021054 539.55060821 -588.9624283 538.68194583 C-586.6299679 536.34812716 -584.29529097 534.01656733 -581.95964426 531.6859401 C-579.41690466 529.14755031 -576.87709163 526.60623508 -574.33690589 524.06529009 C-569.88638989 519.61424167 -565.4340282 515.16504624 -560.9804492 510.71706265 C-554.35776944 504.10268008 -547.73797749 497.485413 -541.11879404 490.86753182 C-529.98179687 479.73286876 -518.84254401 468.60046496 -507.70207738 457.46927326 C-492.48764343 442.26744524 -477.27649292 427.06233496 -462.06621723 411.85634648 C-454.97943711 404.77157263 -447.89249642 397.68695941 -440.80551385 390.60238808 C-440.09605961 389.89317485 -439.38660537 389.18396162 -438.65565252 388.45325709 C-421.77073768 371.574153 -404.88425042 354.69662229 -387.99750089 337.81935376 C-386.88925688 336.71173021 -386.88925688 336.71173021 -385.75862409 335.58173042 C-373.76924181 323.59906489 -361.77976417 311.61649478 -349.79027426 299.63393694 C-338.55754667 288.40770195 -327.3248538 277.18143223 -316.09222745 265.95509594 C-315.35394632 265.2172294 -314.61566519 264.47936286 -313.8550119 263.71913672 C-296.99944976 246.87302297 -280.14433754 230.0264594 -263.29063654 213.17848366 C-262.5822916 212.47037972 -261.87394666 211.76227577 -261.14413672 211.03271413 C-254.07247475 203.96343753 -247.0008915 196.89408221 -239.92942571 189.82460937 C-224.7364301 174.63593041 -209.54205701 159.44863312 -194.34489316 144.26412466 C-183.26715438 133.19556902 -172.19112964 122.12530074 -161.11689264 111.05324149 C-154.53680004 104.47456396 -147.95529146 97.89731029 -141.37176955 91.32206456 C-136.97416601 86.92971815 -132.57837895 82.53555942 -128.18405932 78.13992764 C-125.68043376 75.63566123 -123.17602344 73.13219382 -120.66938138 70.63094646 C-117.96702554 67.93437242 -115.2685698 65.23391678 -112.57046938 62.53308457 C-111.79481822 61.76034627 -111.01916706 60.98760797 -110.22001132 60.19145336 C-104.21432417 54.16927662 -98.59805864 47.9716885 -93.41585069 41.22402787 C-66.57356969 6.40639224 -42.69078328 -1.27400818 0 0 Z " fill="#40D0FD" transform="translate(1269.979678626638,940.1779606980272)"/>
<path d="M0 0 C3.2961995 1.44133276 5.47392825 3.22405303 8.01058602 5.76103836 C8.80508782 6.55078935 9.59958962 7.34054034 10.41816723 8.15422317 C11.28684048 9.0278646 12.15551373 9.90150603 13.05051041 10.80162144 C13.98035456 11.72885831 14.91019872 12.65609518 15.86821997 13.61143014 C18.46191292 16.19813596 21.04930217 18.79106935 23.63575028 21.38501654 C26.44580273 24.20102411 29.26163284 27.0112441 32.07674575 29.82219118 C37.01397923 34.75372872 41.94746654 39.68898946 46.87854767 44.62667847 C54.21096944 51.96889904 61.5490865 59.30540744 68.88837886 66.64075936 C81.23308999 78.97918788 93.57306128 91.32234668 105.91028595 103.66826057 C118.12986038 115.89643968 130.35127715 128.12277216 142.57524872 140.34655571 C143.3346918 141.10599114 144.09413487 141.86542657 144.87659138 142.6478752 C147.95913938 145.7303823 151.04169974 148.81287705 154.12427695 151.89535496 C183.05788874 180.82806009 211.98606667 209.76619254 240.9115331 238.70704077 C266.63369591 264.4428315 292.35955373 290.17492258 318.08886719 315.90356445 C319.74121336 317.55587021 321.3935595 319.208176 323.04590562 320.86048181 C323.86277871 321.67733455 324.6796518 322.49418729 325.52127862 323.33579314 C329.63294644 327.44736017 333.74460916 331.5589323 337.85626602 335.67051029 C338.66736022 336.48158778 339.47845442 337.29266527 340.31412724 338.12832086 C361.78887091 359.60269973 383.26116474 381.07952785 404.73262191 402.55719274 C405.49595172 403.32074282 406.25928152 404.0842929 407.04574254 404.87098086 C410.11553493 407.94166153 413.18532727 411.01234225 416.25510665 414.08303593 C426.95376514 424.78485922 437.65325326 435.48585242 448.35327346 446.18631423 C462.13732327 459.97096001 475.91968312 473.75729192 489.69909838 487.54657061 C496.99389666 494.84649983 504.29006352 502.14505483 511.58818534 509.44166139 C516.45330093 514.30604613 521.3166118 519.17223007 526.17841029 524.03993014 C528.95483712 526.81962739 531.73207137 529.59850534 534.51147106 532.37523032 C537.49462009 535.35555002 540.47394655 538.33966062 543.45285416 541.3242197 C544.33089207 542.2002023 545.20892998 543.07618489 546.1135751 543.97871241 C546.89806283 544.76595988 547.68255055 545.55320735 548.49081063 546.3643108 C549.17373473 547.0475264 549.85665883 547.73074199 550.5602776 548.43466109 C552 550 552 550 552 551 C494.76657297 554.54337191 437.52242598 557.80185415 380.20756531 559.68034363 C379.34632262 559.70864533 378.48507993 559.73694703 377.59773897 559.76610635 C358.83696247 560.38103604 340.07503035 560.94871564 321.31137999 561.46839254 C312.09689919 561.72388118 302.88272955 561.98970407 293.66870117 562.26098633 C292.29404097 562.30119474 292.29404097 562.30119474 290.89160986 562.34221544 C263.4671738 563.14885953 236.11825666 564.50518642 208.74100331 566.29064611 C166.39761713 569.04305792 124.09787155 570.87794304 81.6590543 571.01128259 C79.91964405 571.01678347 78.18023682 571.02333771 76.4408345 571.03094325 C-13.93911206 571.41684507 -83.88781905 559.98772542 -170.80569094 480.63082648 C-208.28805707 443.36784427 -242.44704398 402.36511556 -273.64469546 359.73829204 C-274.29343765 358.85633719 -274.94217984 357.97438234 -275.61058088 357.06570158 C-276.79331006 355.45333622 -277.96809591 353.83509297 -279.13232318 352.20931771 C-282.41697986 347.72610607 -285.90771388 344.06938625 -290.1848831 340.51487004 C-292.89196053 338.25558278 -295.32604375 335.7857401 -297.8125 333.28515625 C-298.56128418 332.53424965 -298.56128418 332.53424965 -299.32519531 331.76817322 C-300.8858737 330.20199236 -302.44299847 328.63233529 -304 327.0625 C-305.07137887 325.98609346 -306.14299182 324.90991986 -307.21484375 323.83398438 C-309.81259638 321.22533255 -312.40717962 318.61355529 -315 316 C-309.29978418 309.03623328 -302.91112066 302.77476222 -296.54763794 296.42738342 C-295.26768291 295.146992 -293.98794779 293.86638071 -292.708413 292.58556932 C-289.2011254 289.07605015 -285.69073489 285.56964921 -282.17982244 282.06375682 C-278.39075931 278.27901722 -274.60459177 274.49138287 -270.81806946 270.70410156 C-264.26037342 264.1458815 -257.70085078 257.58949301 -251.1400795 251.03434944 C-241.65433888 241.55674021 -232.1713649 232.07636674 -222.68906115 222.59531908 C-207.30410332 207.21254919 -191.91691424 191.83201321 -176.52832031 176.45288086 C-161.58085889 161.51460023 -146.63444944 146.57526835 -131.68945312 131.63452148 C-130.76804783 130.71337892 -129.84664254 129.79223635 -128.89731587 128.84318037 C-124.27484446 124.222014 -119.65239371 119.60082696 -115.02995324 114.97962964 C-76.68983956 76.64988053 -38.34610394 38.32375623 0 0 Z " fill="#08589C" transform="translate(1294,1497)"/>
<path d="M0 0 C6.96376672 5.70021582 13.22523778 12.08887934 19.57261658 18.45236206 C20.853008 19.73231709 22.13361929 21.01205221 23.41443068 22.291587 C26.92394985 25.7988746 30.43035079 29.30926511 33.93624318 32.82017756 C37.72098278 36.60924069 41.50861713 40.39540823 45.29589844 44.18193054 C51.8541185 50.73962658 58.41050699 57.29914922 64.96565056 63.8599205 C74.44325979 73.34566112 83.92363326 82.8286351 93.40468092 92.31093885 C108.78745081 107.69589668 124.16798679 123.08308576 139.54711914 138.47167969 C154.48539977 153.41914111 169.42473165 168.36555056 184.36547852 183.31054688 C185.28662108 184.23195217 186.20776365 185.15335746 187.15681963 186.10268413 C191.777986 190.72515554 196.39917304 195.34760629 201.02037036 199.97004676 C239.35011947 238.31016044 277.67624377 276.65389606 316 315 C310.29978418 321.96376672 303.91112066 328.22523778 297.54763794 334.57261658 C296.26768291 335.853008 294.98794779 337.13361929 293.708413 338.41443068 C290.2011254 341.92394985 286.69073489 345.43035079 283.17982244 348.93624318 C279.39075931 352.72098278 275.60459177 356.50861713 271.81806946 360.29589844 C265.26037342 366.8541185 258.70085078 373.41050699 252.1400795 379.96565056 C242.65433888 389.44325979 233.1713649 398.92363326 223.68906115 408.40468092 C208.30410332 423.78745081 192.91691424 439.16798679 177.52832031 454.54711914 C162.58085889 469.48539977 147.63444944 484.42473165 132.68945312 499.36547852 C131.76804783 500.28662108 130.84664254 501.20776365 129.89731587 502.15681963 C125.27484446 506.777986 120.65239371 511.39917304 116.02995324 516.02037036 C77.68983956 554.35011947 39.34610394 592.67624377 1 631 C-2.1770008 629.48438003 -4.33571964 627.91271325 -6.83129883 625.41162109 C-7.56919144 624.67680511 -8.30708405 623.94198914 -9.06733704 623.18490601 C-9.85593613 622.3891214 -10.64453522 621.59333679 -11.45703125 620.7734375 C-12.68881355 619.54096786 -12.68881355 619.54096786 -13.94548035 618.28359985 C-15.68355424 616.54250483 -17.41919699 614.79898001 -19.15258789 613.05322266 C-21.7868157 610.40086111 -24.42883374 607.75646643 -27.07226562 605.11328125 C-28.76349104 603.41713538 -30.45426079 601.72053502 -32.14453125 600.0234375 C-33.31832085 598.84797867 -33.31832085 598.84797867 -34.51582336 597.64877319 C-35.26317245 596.89504425 -36.01052155 596.14131531 -36.78051758 595.36474609 C-37.4279744 594.71347748 -38.07543121 594.06220886 -38.74250793 593.39120483 C-40.54668436 591.48016583 -42.25055378 589.54167526 -43.95495987 587.54419899 C-48.71983737 582.09158173 -53.85328744 577.01136836 -58.97813416 571.90161133 C-60.08571048 570.7935983 -61.19306675 569.68536528 -62.30022341 568.57693291 C-65.32638915 565.54854183 -68.35564599 562.5232597 -71.38543761 559.49849677 C-74.65846378 556.22980318 -77.92858494 552.95820552 -81.19906616 549.68696594 C-86.86021788 544.02529077 -92.52319253 538.36544431 -98.1874218 532.70684814 C-106.37686854 524.52554054 -114.56354111 516.34146153 -122.74954683 508.1567111 C-136.03200267 494.87644198 -149.31668852 481.59840595 -162.6027832 468.32177734 C-175.50630087 455.42744361 -188.40876417 442.53205634 -201.30981445 429.63525391 C-202.50334759 428.44211486 -202.50334759 428.44211486 -203.7209925 427.22487199 C-207.7128623 423.23430726 -211.70471141 419.24372185 -215.69655025 415.25312614 C-248.79449436 382.16554283 -281.8960604 349.08158479 -315 316 C-309.29978418 309.03623328 -302.91112066 302.77476222 -296.54763794 296.42738342 C-295.26768291 295.146992 -293.98794779 293.86638071 -292.708413 292.58556932 C-289.2011254 289.07605015 -285.69073489 285.56964921 -282.17982244 282.06375682 C-278.39075931 278.27901722 -274.60459177 274.49138287 -270.81806946 270.70410156 C-264.26037342 264.1458815 -257.70085078 257.58949301 -251.1400795 251.03434944 C-241.65433888 241.55674021 -232.1713649 232.07636674 -222.68906115 222.59531908 C-207.30410332 207.21254919 -191.91691424 191.83201321 -176.52832031 176.45288086 C-161.58085889 161.51460023 -146.63444944 146.57526835 -131.68945312 131.63452148 C-130.76804783 130.71337892 -129.84664254 129.79223635 -128.89731587 128.84318037 C-124.27484446 124.222014 -119.65239371 119.60082696 -115.02995324 114.97962964 C-76.68983956 76.64988053 -38.34610394 38.32375623 0 0 Z " fill="#1EBBFC" transform="translate(979,1181)"/>
</svg>
