<?xml version="1.0" encoding="UTF-8"?>
<svg version="1.1" xmlns="http://www.w3.org/2000/svg" width="250" height="201">
<path d="M0 0 C82.5 0 165 0 250 0 C250 66.33 250 132.66 250 201 C167.5 201 85 201 0 201 C0 134.67 0 68.34 0 0 Z " fill="#FABB06" transform="translate(0,0)"/>
<path d="M0 0 C38.61 0 77.22 0 117 0 C117 66.33 117 132.66 117 201 C86.7225 201.04125 56.445 201.0825 25.25 201.125 C10.9264209 201.15231201 10.9264209 201.15231201 -3.68652344 201.18017578 C-15.37548828 201.18920898 -15.37548828 201.18920898 -20.85308838 201.19088745 C-24.66675153 201.19274561 -28.48035861 201.20022015 -32.29400635 201.21115112 C-37.16872871 201.2249369 -42.04337032 201.22896982 -46.91811037 201.22614455 C-48.70077228 201.22673476 -50.48343721 201.23066042 -52.26608229 201.23843026 C-70.58179511 201.31450937 -88.87784861 199.55611215 -104 188 C-104 185 -104 185 -102.86108398 183.50032043 C-102.32813721 182.97403549 -101.79519043 182.44775055 -101.24609375 181.90551758 C-100.64547119 181.30512161 -100.04484863 180.70472565 -99.42602539 180.08613586 C-98.44170532 179.12504158 -98.44170532 179.12504158 -97.4375 178.14453125 C-96.43867798 177.15207649 -96.43867798 177.15207649 -95.41967773 176.13957214 C-93.28670621 174.0234226 -91.1435509 171.91792734 -89 169.8125 C-87.55400575 168.38154797 -86.10868429 166.94991572 -84.6640625 165.51757812 C-81.1171401 162.00377176 -77.56104822 158.49948754 -74 155 C-73.01 155.33 -72.02 155.66 -71 156 C-69.33522274 156.10014137 -67.66676256 156.143559 -65.99900818 156.15390015 C-64.96598068 156.16250061 -63.93295319 156.17110107 -62.86862183 156.17996216 C-61.73562653 156.18422211 -60.60263123 156.18848206 -59.43530273 156.19287109 C-57.64457588 156.20513733 -57.64457588 156.20513733 -55.81767273 156.21765137 C-51.85632665 156.24251656 -47.89498809 156.25918163 -43.93359375 156.2734375 C-42.56712399 156.27879929 -41.20065429 156.28417681 -39.83418465 156.28956985 C-34.14578256 156.31119939 -28.45738326 156.32993208 -22.76895046 156.34119225 C-14.63380746 156.35740415 -6.49914415 156.39051307 1.63581806 156.44759309 C7.36422514 156.48640647 13.09250457 156.50583864 18.82103962 156.51111281 C22.2376117 156.51475232 25.65367189 156.52662111 29.07010078 156.55921555 C32.89028204 156.59090534 36.7092623 156.59089674 40.52954102 156.58349609 C41.6483667 156.59990143 42.76719238 156.61630676 43.91992188 156.63320923 C52.02467969 156.56916911 58.79201196 154.8353015 64.90978336 149.25935936 C70.77885744 142.98059279 72.59123336 136.47893122 72.34765625 127.99609375 C71.47506899 120.47615635 67.63758686 114.00108512 62 109 C56.9022418 105.52040986 52.09266921 104.43519066 46 104 C45.96132813 102.60201172 45.96132813 102.60201172 45.921875 101.17578125 C45.10375885 82.7867615 39.0630894 68.0630894 26 55 C35.57 45.43 45.14 35.86 55 26 C52.738248 21.47649599 50.16305209 19.71058437 46.0625 17.0625 C45.38590332 16.62083496 44.70930664 16.17916992 44.01220703 15.72412109 C30.40533586 7.00606186 15.99707376 2.82275503 0 1 C0 0.67 0 0.34 0 0 Z " fill="#4285F4" transform="translate(133,0)"/>
<path d="M0 0 C0.63292969 0.44988281 1.26585937 0.89976563 1.91796875 1.36328125 C12.07815564 9.32545862 18.89788034 22.38728204 21 35 C21.31793081 39.99961783 21.182318 44.99638385 21 50 C22.134375 49.896875 23.26875 49.79375 24.4375 49.6875 C30.753716 49.72097818 35.43134023 52.66982315 40.01953125 56.83203125 C46.5679098 63.82156372 48.69545121 70.41696612 48.40625 79.97265625 C47.33908445 87.92509185 43.2443778 93.42999631 37.2578125 98.52734375 C30.1813765 103.14294301 24.27856699 103.44587559 15.98120117 103.43579102 C14.78679916 103.44586685 13.59239716 103.45594269 12.36180115 103.46632385 C9.10122758 103.48986514 5.84099886 103.49985204 2.58035064 103.50177121 C0.53843433 103.503911 -1.50342279 103.51032952 -3.54532433 103.51826286 C-10.68267984 103.54597625 -17.81986785 103.55827353 -24.95727539 103.5559082 C-31.58822732 103.55410727 -38.21844598 103.58574519 -44.84921247 103.63313919 C-50.56074998 103.67249377 -56.27204907 103.68845457 -61.98372096 103.68654197 C-65.38686409 103.68578069 -68.78935497 103.69412685 -72.19236183 103.72607613 C-75.99319343 103.75558303 -79.79215365 103.74680328 -83.59301758 103.72875977 C-85.26182983 103.75404755 -85.26182983 103.75404755 -86.96435547 103.77984619 C-95.572243 103.67639008 -101.54435051 101.06430326 -107.91003132 95.25772953 C-113.28382021 89.73350366 -115.09510801 83.11693206 -115.5 75.5625 C-115.2519755 67.85217318 -111.90105919 61.79235266 -106.8125 56.125 C-100.66120732 50.50513649 -93.14267423 48.14803184 -84.87109375 48.48828125 C-75.96053676 50.07642134 -69.18552179 54.76265305 -64 62 C-63.01 62.99 -63.01 62.99 -62 64 C-47.645 49.645 -47.645 49.645 -33 35 C-37.20421104 24.4894724 -47.80251474 17.6428725 -57.95800781 13.12988281 C-61.91097601 11.55698433 -65.93120334 10.24339761 -70 9 C-70.99 8.67 -71.98 8.34 -73 8 C-70.09574601 0.63271163 -61.18830161 -3.63651955 -54.375 -6.875 C-35.64535384 -14.70979565 -16.43199006 -11.68563827 0 0 Z " fill="#FEFEFE" transform="translate(158,54)"/>
<path d="M0 0 C0.70382813 0.69738281 1.40765625 1.39476563 2.1328125 2.11328125 C2.1328125 6.11328125 2.1328125 6.11328125 -0.4375 9.13769531 C-1.61218056 10.31174278 -2.79786674 11.47484394 -3.9921875 12.62890625 C-4.61367676 13.24473572 -5.23516602 13.86056519 -5.87548828 14.49505615 C-7.86353804 16.46070728 -9.86503913 18.41200242 -11.8671875 20.36328125 C-13.21705488 21.69308828 -14.56602498 23.0238068 -15.9140625 24.35546875 C-19.22145002 27.61874255 -22.54096953 30.86920772 -25.8671875 34.11328125 C-29.56452817 32.66389889 -33.03711601 31.0214496 -36.5546875 29.17578125 C-49.66507475 22.65248638 -62.54290328 20.88912689 -76.890625 25.0078125 C-84.31813669 27.76632406 -90.95928438 31.17061273 -96.5234375 36.83203125 C-100.73331154 40.60467207 -103.97481016 40.78792322 -109.49511719 40.57495117 C-110.52540039 40.5051001 -111.55568359 40.43524902 -112.6171875 40.36328125 C-114.76269775 40.29164566 -116.90857863 40.23030946 -119.0546875 40.1796875 C-120.06789062 40.15535645 -121.08109375 40.13102539 -122.125 40.10595703 C-127.37991477 40.11999259 -131.98711225 41.26398957 -136.8671875 43.11328125 C-137.89972656 43.5 -138.93226563 43.88671875 -139.99609375 44.28515625 C-145.55343944 46.49445687 -150.77170692 48.98650908 -155.8671875 52.11328125 C-153.20432785 36.92132555 -144.30890979 22.24148355 -133.8671875 11.11328125 C-133.12210938 10.27796875 -132.37703125 9.44265625 -131.609375 8.58203125 C-96.6546504 -28.79529803 -39.68996643 -29.17160718 0 0 Z " fill="#E94335" transform="translate(185.8671875,20.88671875)"/>
<path d="M0 0 C38.61 0 77.22 0 117 0 C117 40.26 117 80.52 117 122 C116.67 122 116.34 122 116 122 C115.79246094 121.00742188 115.58492188 120.01484375 115.37109375 118.9921875 C111.29245819 100.58358071 102.9382725 85.87003811 88 74 C87.34 73.67 86.68 73.34 86 73 C85.18139648 71.27270508 85.18139648 71.27270508 84.37109375 69.01953125 C84.06308838 68.19179199 83.75508301 67.36405273 83.43774414 66.51123047 C83.10766357 65.62064941 82.77758301 64.73006836 82.4375 63.8125 C77.17543413 50.19289293 70.20217727 39.52575379 60 29 C59.4740625 28.40058594 58.948125 27.80117188 58.40625 27.18359375 C43.60663121 10.91156391 21.20218992 3.41584173 0 1 C0 0.67 0 0.34 0 0 Z " fill="#FEFEFE" transform="translate(133,0)"/>
<path d="M0 0 C38.28 0 76.56 0 116 0 C116 0.33 116 0.66 116 1 C114.43765625 1.22042969 114.43765625 1.22042969 112.84375 1.4453125 C87.07083804 5.36490497 64.15098989 17.30535655 47.66015625 37.92578125 C41.04791644 47.00206941 35.82312748 57.11353052 32.03515625 67.6953125 C29.95363017 73.47387745 26.26927828 76.64976421 21.71386719 80.55957031 C9.42886902 91.40544728 3.94961221 106.29108045 1 122 C0.67 122 0.34 122 0 122 C0 81.74 0 41.48 0 0 Z " fill="#FEFEFE" transform="translate(0,0)"/>
<path d="M0 0 C1.31883179 0.48218994 1.31883179 0.48218994 2.66430664 0.97412109 C8.44351192 2.61406693 14.40901104 2.35818708 20.37109375 2.4140625 C22.28729271 2.44311172 22.28729271 2.44311172 24.24220276 2.4727478 C27.61720531 2.52223006 30.99210387 2.56357072 34.36724854 2.60089111 C37.81979927 2.64109741 41.27219153 2.69200999 44.72460938 2.7421875 C51.48301085 2.83963516 58.24129354 2.91936237 65 3 C65 17.19 65 31.38 65 46 C57.52126728 46.04212052 50.04297262 46.08217023 42.56422424 46.10350037 C39.08036136 46.11399355 35.59659827 46.12797882 32.11279297 46.15087891 C28.10122802 46.17707845 24.0897662 46.18652971 20.078125 46.1953125 C18.84950745 46.20563507 17.62088989 46.21595764 16.3550415 46.22659302 C-0.02973028 46.22869001 -16.66585527 43.18974535 -30 33 C-30 30 -30 30 -28.86108398 28.50032043 C-28.32813721 27.97403549 -27.79519043 27.44775055 -27.24609375 26.90551758 C-26.34515991 26.00492363 -26.34515991 26.00492363 -25.42602539 25.08613586 C-24.76981201 24.44540634 -24.11359863 23.80467682 -23.4375 23.14453125 C-22.77161865 22.48289474 -22.1057373 21.82125824 -21.41967773 21.13957214 C-19.28670621 19.0234226 -17.1435509 16.91792734 -15 14.8125 C-13.55400575 13.38154797 -12.10868429 11.94991572 -10.6640625 10.51757812 C-7.1171401 7.00377176 -3.56104822 3.49948754 0 0 Z " fill="#34A853" transform="translate(59,155)"/>
<path d="M0 0 C0.33 0 0.66 0 1 0 C1 20.46 1 40.92 1 62 C-21.11 62 -43.22 62 -66 62 C-66 61.67 -66 61.34 -66 61 C-65.15179688 60.91363281 -64.30359375 60.82726562 -63.4296875 60.73828125 C-43.63896393 58.36774403 -26.51144931 50.03500867 -13.8125 34.3125 C-7.82098838 25.8458625 -2.60263849 15.42992817 -0.875 5.1875 C-0.70742187 4.21167969 -0.53984375 3.23585937 -0.3671875 2.23046875 C-0.18542969 1.12638672 -0.18542969 1.12638672 0 0 Z " fill="#FCFDFE" transform="translate(249,139)"/>
<path d="M0 0 C0.33 0 0.66 0 1 0 C1.08636719 0.70382813 1.17273438 1.40765625 1.26171875 2.1328125 C3.99930324 21.37125027 12.19973938 37.20698558 27.1875 49.6875 C38.37485214 57.96066426 51.17399197 62.88499935 65 64 C65 64.33 65 64.66 65 65 C43.55 65 22.1 65 0 65 C0 43.55 0 22.1 0 0 Z " fill="#FDFDFC" transform="translate(0,136)"/>
<path d="M0 0 C38.61 0 77.22 0 117 0 C115 2 115 2 112.67147827 2.24050903 C111.6988504 2.23606781 110.72622253 2.23162659 109.72412109 2.22705078 C108.6231308 2.22689972 107.5221405 2.22674866 106.38778687 2.22659302 C105.19505157 2.21627045 104.00231628 2.20594788 102.7734375 2.1953125 C101.55548492 2.1924826 100.33753235 2.18965271 99.08267212 2.18673706 C95.18001617 2.17551256 91.27758697 2.15040372 87.375 2.125 C84.73437831 2.11497314 82.09375303 2.10584678 79.453125 2.09765625 C72.96859166 2.07726464 66.48455063 2.0381195 60 2 C60 15.53 60 29.06 60 43 C59.01 43.495 59.01 43.495 58 44 C58 29.81 58 15.62 58 1 C38.86 1 19.72 1 0 1 C0 0.67 0 0.34 0 0 Z " fill="#66A4D8" transform="translate(66,157)"/>
</svg>
