<?xml version="1.0" encoding="UTF-8"?>
<svg version="1.1" xmlns="http://www.w3.org/2000/svg" width="110" height="110">
<path d="M0 0 C1.07636719 -0.01160156 2.15273438 -0.02320312 3.26171875 -0.03515625 C11.24761056 -0.00597516 18.27035367 0.61634376 24.5 5.9375 C27.79827539 9.95727313 27.67426698 13.02883537 27.703125 18.05078125 C27.70882507 18.81295456 27.71452515 19.57512787 27.72039795 20.36039734 C27.72985081 21.97519542 27.73638307 23.59001282 27.74023438 25.20483398 C27.74992133 27.66750092 27.78093303 30.12932656 27.8125 32.59179688 C27.8190321 34.16145338 27.82428176 35.73111586 27.828125 37.30078125 C27.8404718 38.03428299 27.8528186 38.76778473 27.86553955 39.52351379 C27.84619206 43.99690688 27.2558145 46.82056002 24.5 50.375 C19.03544798 54.29826812 14.23128912 54.51311814 7.6640625 54.55078125 C6.10936144 54.57397818 4.55467389 54.59809547 3 54.62304688 C0.56208208 54.65813366 -1.87533696 54.68750186 -4.31347656 54.70092773 C-6.67573568 54.71646262 -9.03656063 54.75669685 -11.3984375 54.80078125 C-12.48153702 54.79791862 -12.48153702 54.79791862 -13.58651733 54.79499817 C-18.66890295 54.91693283 -21.62872464 56.10177641 -25.5 59.375 C-27.43753445 62.20727157 -27.82904064 64.75573857 -28.1328125 68.140625 C-28.21660156 69.03007813 -28.30039062 69.91953125 -28.38671875 70.8359375 C-28.46535156 71.75632812 -28.54398438 72.67671875 -28.625 73.625 C-28.71136719 74.56085938 -28.79773438 75.49671875 -28.88671875 76.4609375 C-29.09832308 78.76507353 -29.30248677 81.06962044 -29.5 83.375 C-31.09761166 83.39364477 -32.6952864 83.40693444 -34.29296875 83.41796875 C-35.18266357 83.42594482 -36.0723584 83.4339209 -36.98901367 83.44213867 C-41.73475405 83.31524722 -44.56828585 82.15503975 -48.1875 79.125 C-54.35725764 71.78799092 -54.72128725 64.90776015 -54.8125 55.75 C-54.84150391 54.80253906 -54.87050781 53.85507812 -54.90039062 52.87890625 C-54.96998356 45.0523778 -53.6924048 37.64926134 -48.0625 31.875 C-42.22508873 28.45797877 -37.68278531 28.10099804 -31.04296875 28.1796875 C-30.14000565 28.1825174 -29.23704254 28.18534729 -28.30671692 28.18826294 C-25.43350766 28.19942393 -22.56061445 28.22452103 -19.6875 28.25 C-17.73503056 28.26003507 -15.78255621 28.26916 -13.83007812 28.27734375 C-9.05326434 28.29934992 -4.27668569 28.33385169 0.5 28.375 C0.5 27.385 0.5 26.395 0.5 25.375 C-8.41 25.375 -17.32 25.375 -26.5 25.375 C-26.6546875 21.600625 -26.6546875 21.600625 -26.8125 17.75 C-26.88078003 16.57896729 -26.88078003 16.57896729 -26.95043945 15.38427734 C-27.02831111 11.4263878 -26.6043515 9.55287661 -24.54296875 6.0390625 C-18.08881918 -0.5679217 -8.59095359 -0.0925971 0 0 Z M-16.5 9.375 C-17.16 10.035 -17.82 10.695 -18.5 11.375 C-18.17801034 14.47426819 -18.17801034 14.47426819 -17.5 17.375 C-15.65274948 18.06659401 -15.65274948 18.06659401 -13.5 18.375 C-12.51 17.715 -11.52 17.055 -10.5 16.375 C-10.08333333 13.875 -10.08333333 13.875 -10.5 11.375 C-11.16 10.715 -11.82 10.055 -12.5 9.375 C-13.82 9.375 -15.14 9.375 -16.5 9.375 Z " fill="#3672A4" transform="translate(54.5,-0.375)"/>
<path d="M0 0 C1.59761166 -0.01864477 3.1952864 -0.03193444 4.79296875 -0.04296875 C5.68266357 -0.05094482 6.5723584 -0.0589209 7.48901367 -0.06713867 C12.23475405 0.05975278 15.06828585 1.21996025 18.6875 4.25 C24.85725764 11.58700908 25.22128725 18.46723985 25.3125 27.625 C25.35600586 29.04619141 25.35600586 29.04619141 25.40039062 30.49609375 C25.46998356 38.3226222 24.1924048 45.72573866 18.5625 51.5 C12.72508873 54.91702123 8.18278531 55.27400196 1.54296875 55.1953125 C0.64000565 55.1924826 -0.26295746 55.18965271 -1.19328308 55.18673706 C-4.06649234 55.17557607 -6.93938555 55.15047897 -9.8125 55.125 C-11.76496944 55.11496493 -13.71744379 55.10584 -15.66992188 55.09765625 C-20.44673566 55.07565008 -25.22331431 55.04114831 -30 55 C-30 55.99 -30 56.98 -30 58 C-21.09 58 -12.18 58 -3 58 C-2.9175 60.536875 -2.835 63.07375 -2.75 65.6875 C-2.71358398 66.47729248 -2.67716797 67.26708496 -2.63964844 68.08081055 C-2.58576253 71.51777536 -2.8262995 73.65406277 -4.390625 76.76953125 C-11.80942561 83.11105093 -20.15839539 83.61343678 -29.5625 83.4375 C-31.1702832 83.44813477 -31.1702832 83.44813477 -32.81054688 83.45898438 C-40.76116529 83.39576845 -48.30263075 82.84239991 -54.52734375 77.4140625 C-58.69324799 71.9372295 -57.77183749 64.34886714 -57.61743164 57.79296875 C-57.56247817 55.37403919 -57.55590447 52.95855292 -57.55664062 50.5390625 C-57.54189724 48.99215788 -57.52441315 47.44527645 -57.50390625 45.8984375 C-57.50056778 45.18062103 -57.49722931 44.46280457 -57.49378967 43.72323608 C-57.36975883 39.33115429 -56.68245915 36.50145971 -54 33 C-48.61166388 29.13145099 -43.86039416 28.85621986 -37.3828125 28.7890625 C-35.87368706 28.76099431 -34.36457262 28.73232985 -32.85546875 28.703125 C-30.49007474 28.66191092 -28.12488612 28.62499873 -25.75927734 28.59863281 C-23.46669835 28.57090193 -21.17503452 28.52503849 -18.8828125 28.4765625 C-17.83252365 28.4716832 -17.83252365 28.4716832 -16.76101685 28.46670532 C-12.13360884 28.35183192 -8.94614705 27.40681506 -5 25 C-1.15161895 20.63404926 -1.24081075 15.2476809 -0.8125 9.6875 C-0.73064453 8.75615234 -0.64878906 7.82480469 -0.56445312 6.86523438 C-0.3650129 4.57753768 -0.17724178 2.28950552 0 0 Z M-19 67 C-19.41666667 69.5 -19.41666667 69.5 -19 72 C-18.34 72.66 -17.68 73.32 -17 74 C-14.39719432 73.67958603 -14.39719432 73.67958603 -12 73 C-11.23043864 70.65466049 -11.23043864 70.65466049 -11 68 C-12.20918882 66.12359581 -12.20918882 66.12359581 -14 65 C-16.32357511 64.81509993 -16.32357511 64.81509993 -19 67 Z " fill="#FFD242" transform="translate(85,27)"/>
</svg>
