<?xml version="1.0" encoding="UTF-8"?>
<svg version="1.1" xmlns="http://www.w3.org/2000/svg" width="185" height="185">
<path d="M0 0 C40.48024901 -0.69165893 77.97755357 16.24823755 106.9375 43.94140625 C131.53533336 68.11751865 148.12933386 103.40073035 149.17578125 138.078125 C149.18543878 141.05264481 149.10491828 144.02731543 149 147 C145.37 147 141.74 147 138 147 C137.85304687 145.36675781 137.70609375 143.73351562 137.5546875 142.05078125 C134.60927432 111.91781481 126.15537179 84.19622092 106 61 C105.30261719 60.18144531 104.60523437 59.36289063 103.88671875 58.51953125 C76.36318872 26.98724551 40.59322483 15.08407445 0 11 C0 7.37 0 3.74 0 0 Z " fill="#489BD1" transform="translate(7,26)"/>
<path d="M0 0 C27.94227556 3.60545491 57.6980663 25.64004347 75 47 C75.75925781 47.92167969 76.51851563 48.84335937 77.30078125 49.79296875 C89.59498993 65.02140815 105 87.73565701 105 108 C100.545 108.495 100.545 108.495 96 109 C95.53851563 107.63230469 95.07703125 106.26460938 94.6015625 104.85546875 C88.25863164 86.48939509 80.66477566 69.86734534 68 55 C67.27167969 54.13246094 66.54335937 53.26492187 65.79296875 52.37109375 C47.2560542 31.02859214 24.4657588 18.11630012 -2 9 C-1.34 6.03 -0.68 3.06 0 0 Z " fill="#489BD1" transform="translate(65,14)"/>
<path d="M0 0 C5.17782359 0.2608232 8.55765729 3.26939614 12.5 6.3125 C13.2019751 6.84866943 13.9039502 7.38483887 14.62719727 7.93725586 C33.134331 22.27771959 49.51830221 40.32319251 59 62 C59 63.32 59 64.64 59 66 C56.35261084 67.4606285 55.10551666 68 52 68 C51.45472656 66.91203125 50.90945312 65.8240625 50.34765625 64.703125 C43.49233157 51.25200742 35.40520957 40.00687135 25 29 C24.24203125 28.17757812 23.4840625 27.35515625 22.703125 26.5078125 C16.12720335 19.60954175 8.8147525 14.36403037 1 9 C-0.34006821 8.00904341 -1.67690323 7.01350516 -3 6 C-1.125 1.125 -1.125 1.125 0 0 Z " fill="#489BD1" transform="translate(119,11)"/>
</svg>
