<?xml version="1.0" encoding="UTF-8"?>
<svg version="1.1" xmlns="http://www.w3.org/2000/svg" width="512" height="512">
<path d="M0 0 C1.01790619 0.00215515 2.03581238 0.0043103 3.08456421 0.00653076 C17.69363523 0.05620146 32.02575853 0.30709809 46.375 3.3125 C47.34985352 3.51117676 48.32470703 3.70985352 49.32910156 3.91455078 C97.7109774 14.03517194 141.69928269 35.9516877 177.375 70.3125 C178.3640332 71.26068604 178.3640332 71.26068604 179.37304688 72.22802734 C188.86130305 81.37247479 197.6012044 90.66984009 205.375 101.3125 C206.23306152 102.46355017 207.09113451 103.61459177 207.94921875 104.765625 C213.98736829 112.95680614 219.34595521 121.47054105 224.375 130.3125 C224.73948242 130.94430176 225.10396484 131.57610352 225.47949219 132.22705078 C247.08534998 169.97532572 256.85198095 212.74189997 256.6875 255.9375 C256.68534485 256.95540619 256.6831897 257.97331238 256.68096924 259.02206421 C256.63129854 273.63113523 256.38040191 287.96325853 253.375 302.3125 C253.07698486 303.77478027 253.07698486 303.77478027 252.77294922 305.26660156 C241.38319078 359.71561908 215.25958596 404.27735163 176.39929199 443.46243286 C175.4002275 444.47019826 174.40253574 445.4793268 173.40637207 446.48995972 C157.45565545 462.64455919 139.14869957 476.18882973 119.375 487.3125 C118.74899902 487.67263184 118.12299805 488.03276367 117.47802734 488.40380859 C108.62514711 493.47249021 99.51562666 497.6690418 90.0625 501.5 C89.10424316 501.89179443 88.14598633 502.28358887 87.15869141 502.68725586 C83.91987712 503.96573518 80.65303475 505.13790863 77.375 506.3125 C76.72864342 506.55891644 76.08228683 506.80533289 75.41634369 507.0592165 C60.46371358 512.6812531 46.210875 513.24067105 30.35641813 513.18431616 C27.6090177 513.17802222 24.86181268 513.19043748 22.11444056 513.20239365 C15.61176436 513.23025374 9.10961476 513.22756189 2.60693359 513.20458984 C-4.01916585 513.18169358 -10.64363981 513.20971524 -17.26952517 513.26338279 C-23.03175871 513.30824333 -28.7934925 513.32085025 -34.55588758 513.30922997 C-37.96529525 513.30261013 -41.37285479 513.31010331 -44.78224564 513.34173203 C-94.93268275 513.74145238 -141.79082196 486.84420804 -178.625 454.3125 C-179.15786621 453.84279785 -179.69073242 453.3730957 -180.23974609 452.88916016 C-185.79064819 447.96900426 -191.17512034 443.00432243 -195.94140625 437.30078125 C-197.11883005 435.9102738 -198.33929781 434.55559993 -199.58984375 433.23046875 C-211.9020704 420.16125167 -221.72298447 404.8435342 -230.625 389.3125 C-231.26864502 388.19004883 -231.26864502 388.19004883 -231.92529297 387.04492188 C-237.08496599 377.92513631 -241.5166185 368.61803031 -245.375 358.875 C-245.88571045 357.591698 -245.88571045 357.591698 -246.40673828 356.2824707 C-247.09672629 354.47884405 -247.75825848 352.66412753 -248.39402771 350.84068298 C-249.02934915 349.01974006 -249.66788272 347.19945743 -250.35192871 345.39625263 C-255.99776562 330.38660414 -256.53907925 316.11054571 -256.46388459 300.19512343 C-256.45457013 297.4399912 -256.46453372 294.68505038 -256.47422332 291.92992955 C-256.49693691 285.41297817 -256.48979809 278.89655806 -256.4621582 272.37963867 C-256.43439785 265.72974755 -256.45370456 259.08120581 -256.49703389 252.43142813 C-256.53318652 246.65396376 -256.54123968 240.87690789 -256.52764148 235.09934694 C-256.5197249 231.67864024 -256.52079972 228.25868441 -256.54850197 224.83806419 C-256.65278296 207.43644184 -254.80012364 192.62454222 -248.625 176.3125 C-248.15320838 175.02222854 -247.68197371 173.73175318 -247.21151733 172.44099426 C-246.15241651 169.60987278 -245.01242181 166.83652372 -243.8125 164.0625 C-243.39145996 163.07491699 -242.97041992 162.08733398 -242.53662109 161.06982422 C-235.46728878 144.76386151 -226.87519993 129.81831507 -216.625 115.3125 C-216.2242627 114.74450684 -215.82352539 114.17651367 -215.41064453 113.59130859 C-206.09338559 100.51480852 -195.31191338 88.63977635 -183.953125 77.32495117 C-182.24845433 75.62345721 -180.55764389 73.90896265 -178.8671875 72.19335938 C-163.17120172 56.40765641 -144.98337587 43.25559717 -125.625 32.3125 C-124.91778809 31.9103125 -124.21057617 31.508125 -123.48193359 31.09375 C-100.34654164 18.0683259 -75.17537591 9.31948539 -49.1875 4 C-48.46860596 3.85264404 -47.74971191 3.70528809 -47.0090332 3.5534668 C-31.36274391 0.57960912 -15.88931954 -0.06050362 0 0 Z " fill="#195F97" transform="translate(255.625,-0.3125)"/>
<path d="M0 0 C1.01790619 0.00215515 2.03581238 0.0043103 3.08456421 0.00653076 C17.69363523 0.05620146 32.02575853 0.30709809 46.375 3.3125 C47.34985352 3.51117676 48.32470703 3.70985352 49.32910156 3.91455078 C97.7109774 14.03517194 141.69928269 35.9516877 177.375 70.3125 C178.3640332 71.26068604 178.3640332 71.26068604 179.37304688 72.22802734 C188.86130305 81.37247479 197.6012044 90.66984009 205.375 101.3125 C206.23306152 102.46355017 207.09113451 103.61459177 207.94921875 104.765625 C213.98736829 112.95680614 219.34595521 121.47054105 224.375 130.3125 C224.73948242 130.94430176 225.10396484 131.57610352 225.47949219 132.22705078 C247.08534998 169.97532572 256.85198095 212.74189997 256.6875 255.9375 C256.68534485 256.95540619 256.6831897 257.97331238 256.68096924 259.02206421 C256.63129854 273.63113523 256.38040191 287.96325853 253.375 302.3125 C253.07698486 303.77478027 253.07698486 303.77478027 252.77294922 305.26660156 C243.13108841 351.35975191 222.81039177 393.07974938 191.375 428.1875 C190.91802734 428.70602539 190.46105469 429.22455078 189.99023438 429.75878906 C188.8482794 431.00432467 187.61715256 432.16686605 186.375 433.3125 C183.375 433.3125 183.375 433.3125 181.83455372 432.1411972 C181.28424331 431.58812141 180.7339329 431.03504562 180.16694641 430.46520996 C179.21416809 429.51861763 179.21416809 429.51861763 178.24214172 428.55290222 C177.55162216 427.85159683 176.8611026 427.15029144 176.1496582 426.42773438 C175.41770233 425.69621658 174.68574646 424.96469879 173.93161011 424.21101379 C171.50582544 421.78313345 169.09084846 419.34478772 166.67578125 416.90625 C164.99920409 415.22407969 163.32196485 413.54256902 161.64408875 411.86169434 C157.22336016 407.42949504 152.81171303 402.98836126 148.40185547 398.54534912 C143.90287922 394.01572011 139.39542995 389.49454044 134.88867188 384.97265625 C126.0424375 376.09421844 117.20547701 367.20660877 108.375 358.3125 C110.73313659 355.95436341 112.04215073 355.75779628 115.25 355 C130.09352342 351.10502845 145.60052022 343.98230566 154.09375 330.60546875 C155.61614185 327.87785001 157.02565135 325.1292653 158.375 322.3125 C158.705 321.63703125 159.035 320.9615625 159.375 320.265625 C164.32049082 309.51869303 164.57551748 292.1432086 160.75 281 C158.505185 276.07716009 155.70364996 271.57252404 152.375 267.3125 C151.89675781 266.69632812 151.41851562 266.08015625 150.92578125 265.4453125 C143.06453471 256.53457965 130.69647254 252.48970626 119.375 250.3125 C120.6876038 247.68729241 122.39545337 247.27346474 124.984375 246.10644531 C137.54065489 240.41850241 144.89632055 232.11749894 150.1887207 219.34936523 C152.45018177 213.31231744 152.86142892 207.78468846 152.8125 201.375 C152.83248047 200.45009766 152.85246094 199.52519531 152.87304688 198.57226562 C152.86541449 187.68084595 148.77827194 179.18510002 141.375 171.3125 C130.60746123 161.46277638 115.92877207 156.29216436 101.47338867 156.10717773 C100.78884519 156.09714501 100.1043017 156.08711229 99.39901447 156.07677555 C97.19703293 156.04555158 94.99503327 156.02068635 92.79296875 155.99609375 C91.42793208 155.97767542 90.06290099 155.95883795 88.69787598 155.9395752 C83.65281676 155.87130895 78.6076506 155.81114018 73.5625 155.75 C62.280625 155.605625 50.99875 155.46125 39.375 155.3125 C39.375 199.2025 39.375 243.0925 39.375 288.3125 C35.12848529 284.67263024 31.05798078 281.13586512 27.06640625 277.26025391 C26.58585281 276.79430313 26.10529938 276.32835236 25.61018372 275.84828186 C21.24664856 271.60937547 16.91010671 267.34268258 12.58184814 263.06778908 C9.68387065 260.20573701 6.77762881 257.35332669 3.85009766 254.52148438 C1.00157826 251.76573576 -1.82428753 248.98855626 -4.63552856 246.19480515 C-5.70594931 245.13845943 -6.78410948 244.08989539 -7.87008667 243.0495491 C-16.14610253 235.10512724 -16.14610253 235.10512724 -17.1789856 231.23880005 C-17.00007788 229.03314012 -16.44320326 227.36939123 -15.625 225.3125 C-15.354599 224.465737 -15.084198 223.618974 -14.80560303 222.74655151 C-13.81712162 219.72940901 -12.72845067 216.76309946 -11.6171875 213.7890625 C-11.21347931 212.68887787 -10.80977112 211.58869324 -10.39382935 210.45516968 C-9.10382042 206.94629699 -7.80192154 203.44196759 -6.5 199.9375 C-5.64769422 197.62136713 -4.79612494 195.3049631 -3.9453125 192.98828125 C0.69714697 180.37674846 5.45982626 167.82021853 10.375 155.3125 C-2 155.8075 -2 155.8075 -14.625 156.3125 C-21.225 174.7925 -27.825 193.2725 -34.625 212.3125 C-38.28253851 212.3125 -39.10118685 211.19117585 -41.61014748 208.70993435 C-42.13631346 208.17434773 -42.66247944 207.6387611 -43.20458984 207.08694458 C-43.76856665 206.52482549 -44.33254345 205.96270639 -44.91361046 205.38355339 C-46.81159343 203.48818109 -48.69862141 201.58225934 -50.5859375 199.67626953 C-51.94044967 198.31927541 -53.29562929 196.96294725 -54.65142822 195.60723877 C-58.33979473 191.91545181 -62.0188983 188.21455344 -65.69660187 184.51214838 C-69.54128142 180.64503943 -73.39481176 176.78677259 -77.24755859 172.92770386 C-84.54892071 165.61183487 -91.8430286 158.28878009 -99.13422966 150.9627856 C-112.19320899 137.84195278 -125.26432551 124.73321628 -138.33819771 111.6272248 C-142.92908592 107.02448401 -147.51677706 102.41858617 -152.10185242 97.81005502 C-154.95215433 94.94594554 -157.80443026 92.08380775 -160.6571579 89.22211456 C-161.9823193 87.89187516 -163.30660191 86.56075967 -164.62995148 85.2287178 C-166.43282149 83.41419488 -168.23872786 81.60274865 -170.04541016 79.79202271 C-170.57157614 79.26089752 -171.09774212 78.72977234 -171.63985252 78.18255246 C-173.88149695 75.94155973 -175.97545605 74.07886263 -178.625 72.3125 C-171.21066035 64.43689959 -163.27018964 57.77248794 -154.625 51.3125 C-153.7580249 50.6623291 -153.7580249 50.6623291 -152.87353516 49.99902344 C-144.14178936 43.49398379 -135.10214848 37.66983769 -125.625 32.3125 C-124.91778809 31.9103125 -124.21057617 31.508125 -123.48193359 31.09375 C-100.34654164 18.0683259 -75.17537591 9.31948539 -49.1875 4 C-48.46860596 3.85264404 -47.74971191 3.70528809 -47.0090332 3.5534668 C-31.36274391 0.57960912 -15.88931954 -0.06050362 0 0 Z " fill="#004E8C" transform="translate(255.625,-0.3125)"/>
<path d="M0 0 C86.03950104 0 86.03950104 0 103.0078125 15.87890625 C113.75928838 27.39834469 114.68331549 39.33346875 114.17480469 54.36474609 C113.53129703 64.06589363 109.04904613 71.6288943 103 79 C102.42636719 79.71027344 101.85273438 80.42054688 101.26171875 81.15234375 C95.62264871 87.443469 88.57597197 90.59506878 81 94 C82.03898437 94.29132813 83.07796875 94.58265625 84.1484375 94.8828125 C99.19155447 99.24020389 111.40973655 105.45492843 119.4375 119.625 C123.51456485 127.3609692 124.31962619 134.34446778 124.25 142.9375 C124.26160156 144.36352539 124.26160156 144.36352539 124.2734375 145.81835938 C124.23271662 160.58986014 118.42389493 173.20558931 108.5 184.0625 C80.43414953 210.99926453 33.35682588 202 0 202 C0 135.34 0 68.68 0 0 Z " fill="#FBFCFD" transform="translate(295,155)"/>
<path d="M0 0 C8.58 0 17.16 0 26 0 C31.40451638 14.13899838 36.38362994 28.41953821 41.35475159 42.7153511 C43.30224643 48.31404712 45.25394002 53.91128256 47.20466995 59.50885201 C47.96005713 61.67665237 48.71519025 63.84454113 49.4703064 66.01243591 C52.65391214 75.15041965 55.8493722 84.2841741 59.05543327 93.41430283 C59.76006281 95.42106518 60.46437939 97.4279371 61.16859436 99.43484497 C61.631192 100.75311387 62.09379268 102.0713817 62.55639648 103.38964844 C62.7826537 104.0344132 63.00891092 104.67917797 63.24202442 105.34348106 C64.33553653 108.45910669 65.4301137 111.57434905 66.52615356 114.68908691 C69.37453225 122.78457462 72.20297243 130.88661786 75 139 C75.22376312 139.64890953 75.44752625 140.29781906 75.67807007 140.96639252 C77.08790463 145.05987868 78.48674173 149.15691391 79.87325287 153.25835991 C80.31606665 154.56502117 80.76139322 155.87083406 81.20944977 157.17570686 C83.47707362 163.78870448 85.50619926 170.00467081 86 177 C86.18651123 176.13938965 86.37302246 175.2787793 86.56518555 174.39208984 C89.64758844 161.12098765 94.23016365 148.44041982 98.8125 135.625 C99.67191782 133.2044817 100.53071442 130.78374275 101.38891602 128.36279297 C103.52666899 122.33815487 105.67305905 116.31664197 107.82312012 110.29638672 C109.20860181 106.41571587 110.59059525 102.53381036 111.97225952 98.65177917 C114.95192232 90.28097095 117.94475898 81.91494021 120.94247437 73.55058289 C123.48969022 66.43762183 126.02050026 59.31887146 128.54887199 52.19919586 C129.91627472 48.35000974 131.28566383 44.5015298 132.65508366 40.65306091 C133.7752134 37.50464132 134.89370229 34.35566075 136.00997925 31.20587158 C137.25731929 27.6868678 138.50907001 24.16946071 139.76171875 20.65234375 C140.13089417 19.60730179 140.50006958 18.56225983 140.88043213 17.48554993 C141.23272888 16.49894882 141.58502563 15.51234772 141.94799805 14.49584961 C142.24917038 13.64768173 142.55034271 12.79951385 142.86064148 11.92564392 C144.43146591 7.89208216 146.24197346 3.95555971 148 0 C156.25 0 164.5 0 173 0 C172.34686504 3.26567478 171.78845007 5.85694263 170.65917969 8.88574219 C170.38581787 9.62469223 170.11245605 10.36364227 169.83081055 11.12498474 C169.53086182 11.92420853 169.23091309 12.72343231 168.921875 13.546875 C168.60355713 14.40446915 168.28523926 15.26206329 167.95727539 16.14564514 C167.2605516 18.02142313 166.56211219 19.89656455 165.86218262 21.77114868 C164.72541636 24.81584442 163.59306826 27.86215067 162.46191406 30.90893555 C161.24796375 34.17870145 160.03376784 37.44837355 158.81829834 40.71757507 C154.54184513 52.22127139 150.29915407 63.73732968 146.05969238 75.25469971 C144.74045531 78.8384283 143.42061735 82.42193502 142.10058594 86.00537109 C138.47567278 95.84586382 134.85156381 105.68665252 131.22851562 115.52783203 C112.98285797 165.08786862 112.98285797 165.08786862 106.09375 183.66241455 C105.53805902 185.16077836 104.9827117 186.65926967 104.42773438 188.15789795 C103.68738359 190.15648914 102.94553911 192.15451827 102.203125 194.15234375 C101.59452637 195.7919104 101.59452637 195.7919104 100.97363281 197.46459961 C100 200 100 200 99 202 C90.42 202 81.84 202 73 202 C69.59954783 193.83891478 66.370163 185.73071515 63.40234375 177.41796875 C62.74781736 175.59717708 62.09328921 173.77638605 61.43869209 171.95561981 C60.74658074 170.02880332 60.05592248 168.10147177 59.36569214 166.17398071 C57.15871045 160.0114702 54.94203152 153.85244403 52.72653389 147.69299126 C51.96611979 145.57862408 51.20605636 143.46413109 50.44602966 141.34962463 C45.64350123 127.99166234 40.79558774 114.65034976 35.9375 101.3125 C34.30958031 96.84126065 32.68201982 92.36989066 31.0546875 87.8984375 C30.64922699 86.78436523 30.24376648 85.67029297 29.82601929 84.52246094 C24.95591151 71.13661844 20.1044483 57.74402542 15.25520706 44.35061264 C14.57241206 42.46487504 13.88946339 40.57919309 13.20651245 38.69351196 C10.79821525 32.0436096 8.39273491 25.39270277 5.99102783 18.74041748 C5.09618356 16.26596942 4.19711712 13.79311067 3.29638672 11.32080078 C2.83160767 10.03812146 2.36691638 8.75541034 1.90234375 7.47265625 C1.52456787 6.4350415 1.14679199 5.39742676 0.75756836 4.32836914 C0 2 0 2 0 0 Z " fill="#FCFDFD" transform="translate(93,155)"/>
<path d="M0 0 C6.14625 -0.061875 12.2925 -0.12375 18.625 -0.1875 C21.48792725 -0.22846802 21.48792725 -0.22846802 24.40869141 -0.27026367 C39.53509819 -0.39655702 53.71420492 1.0006188 66.3125 10.25 C72.86617402 16.95608504 76.2807545 25.39566054 76.3125 34.75 C76.10951951 46.09302734 73.10196334 53.38171668 65.4765625 61.65234375 C56.28125755 70.46637995 42.80568322 73.34873891 30.46875 73.1953125 C29.30134277 73.19229126 29.30134277 73.19229126 28.11035156 73.18920898 C25.24017327 73.17885036 22.37007987 73.15092893 19.5 73.125 C13.065 73.08375 6.63 73.0425 0 73 C0 48.91 0 24.82 0 0 Z " fill="#004E8C" transform="translate(319,263)"/>
<path d="M0 0 C5.81625 -0.0825 11.6325 -0.165 17.625 -0.25 C19.4292041 -0.28641602 21.2334082 -0.32283203 23.09228516 -0.36035156 C36.06463405 -0.51406109 48.71121394 0.41548988 58.79296875 9.640625 C64.99177063 16.79442437 66.62068086 23.15571368 66.3359375 32.62890625 C65.27365436 43.28879406 61.15674761 51.03411193 53 58 C36.79488698 68.71753103 19.3970404 66 0 66 C0 44.22 0 22.44 0 0 Z " fill="#04518D" transform="translate(319,176)"/>
<path d="M0 0 C0.33 0 0.66 0 1 0 C1.05945801 0.56058105 1.11891602 1.12116211 1.18017578 1.69873047 C5.86126798 44.39753277 19.28601061 88.00185217 45 123 C45.72832031 123.99902344 46.45664062 124.99804688 47.20703125 126.02734375 C49.43986634 129.04376322 51.70890405 132.02765782 54 135 C54.63550781 135.83144531 55.27101562 136.66289062 55.92578125 137.51953125 C67.31754094 152.11890857 80.44798498 165.57048213 95 177 C95.98613281 177.79148437 96.97226563 178.58296875 97.98828125 179.3984375 C137.42898722 210.53842204 184.38808849 227.48069203 234 233 C234 233.33 234 233.66 234 234 C181.07094421 235.69072405 181.07094421 235.69072405 159 226 C156.98201902 225.18236128 154.96245279 224.36862533 152.94140625 223.55859375 C124.83311335 212.03553118 99.74424453 196.08756981 77 176 C76.20070068 175.29544678 76.20070068 175.29544678 75.38525391 174.57666016 C69.83435181 169.65650426 64.44987966 164.69182243 59.68359375 158.98828125 C58.50616995 157.5977738 57.28570219 156.24309993 56.03515625 154.91796875 C43.7229296 141.84875167 33.90201553 126.5310342 25 111 C24.57090332 110.25169922 24.14180664 109.50339844 23.69970703 108.73242188 C18.54003401 99.61263631 14.1083815 90.30553031 10.25 80.5625 C9.90952637 79.70696533 9.56905273 78.85143066 9.21826172 77.9699707 C8.08202359 74.9998475 7.03975257 72.00531223 6 69 C5.74812927 68.32503479 5.49625854 67.65006958 5.23675537 66.95465088 C-0.19418266 52.27094396 -0.73990099 38.78927409 -0.375 23.25 C-0.34480932 20.98050484 -0.31744988 18.71097018 -0.29296875 16.44140625 C-0.2278204 10.96005441 -0.12822008 5.48022112 0 0 Z " fill="#FDFEFE" transform="translate(0,278)"/>
<path d="M0 0 C0.99 0.495 0.99 0.495 2 1 C-3.90031061 6.44325051 -9.96447403 11.3673316 -16.5625 15.9375 C-17.43165039 16.54158691 -18.30080078 17.14567383 -19.19628906 17.76806641 C-26.87239541 23.03397092 -34.74917328 27.70169022 -43 32 C-43.95737061 32.50539307 -43.95737061 32.50539307 -44.93408203 33.02099609 C-54.85739121 38.23552939 -65.00602681 42.95370966 -75.45751953 47.01220703 C-77.15174807 47.67044101 -78.84035563 48.34333089 -80.52294922 49.03076172 C-98.76711003 56.33606104 -116.70364388 55.75266541 -136 55 C-136 54.67 -136 54.34 -136 54 C-135.43941895 53.94054199 -134.87883789 53.88108398 -134.30126953 53.81982422 C-89.14672541 48.86950775 -33.37822525 33.37822525 0 0 Z " fill="#FAFBFC" transform="translate(414,457)"/>
<path d="M0 0 C0 3.75960805 -0.88641737 4.33427569 -3.3125 7.125 C-9.22246998 14.30064497 -14.11030476 22.10652907 -19 30 C-19.37157227 30.59828613 -19.74314453 31.19657227 -20.12597656 31.81298828 C-39.79885954 63.85776427 -50.71919768 101.71541501 -54 139 C-54.33 139 -54.66 139 -55 139 C-55.80096036 118.46548891 -55.86198225 100.3369699 -48 81 C-47.21971095 78.97799619 -46.43977367 76.95585661 -45.66015625 74.93359375 C-34.85007723 47.53004343 -19.9517627 21.81221646 0 0 Z " fill="#FCFDFD" transform="translate(55,95)"/>
<path d="M0 0 C0.33 0 0.66 0 1 0 C0.96811584 0.59451965 0.93623169 1.18903931 0.90338135 1.80157471 C-2.26865527 33.41102167 -2.26865527 33.41102167 8.31445312 61.69335938 C16.05629938 68.87027567 23.89958318 73.02434989 34.61303711 72.67236328 C36.41576256 72.51492894 38.2103704 72.26801216 40 72 C40 72.33 40 72.66 40 73 C26.8 73 13.6 73 0 73 C0 48.91 0 24.82 0 0 Z " fill="#3975A5" transform="translate(319,263)"/>
<path d="M0 0 C0 3.83870398 -1.09968084 4.62125882 -3.5625 7.5 C-7.87887964 12.71658716 -11.48486964 18.22200447 -15 24 C-15.66 23.67 -16.32 23.34 -17 23 C-13.03755132 14.39122825 -6.35851763 6.93475829 0 0 Z " fill="#F2F6F9" transform="translate(55,95)"/>
</svg>
